<svg width="101" height="38" viewBox="0 0 101 38" fill="none" xmlns="http://www.w3.org/2000/svg">
<path d="M7.14943 21.9777C5.90987 22.3445 4.27998 22.7136 3.37351 21.4314C3.05847 20.8727 2.88174 20.2467 2.85809 19.6056C2.76152 18.9421 2.5892 18.2919 2.34451 17.6676C1.54159 16.3366 1.00149 14.8639 0.753511 13.3293C0.820276 11.2057 2.98575 11.3014 4.54961 11.1947L4.58629 10.9683C3.08224 10.3153 0.910519 10.1895 0.28285 12.0476C-0.0897982 13.9987 0.263226 16.0187 1.27553 17.7278C1.6235 18.6858 1.85971 19.6808 1.9795 20.693C1.99932 21.0903 2.10075 21.4794 2.27746 21.8358C2.45418 22.1923 2.7024 22.5086 3.00666 22.7649C3.78957 23.1998 4.67488 23.4166 5.57017 23.3926C5.94989 23.4742 6.34397 23.4599 6.71679 23.351C7.08962 23.2421 7.42944 23.0421 7.70556 22.7689C7.77194 22.6835 7.80915 22.5789 7.81172 22.4707C7.8143 22.3625 7.7821 22.2564 7.71986 22.1678C7.65763 22.0793 7.56864 22.013 7.46597 21.9788C7.36329 21.9446 7.25235 21.9442 7.14943 21.9777V21.9777Z" fill="black"/>
<path d="M7.98188 18.0817C8.05928 17.6606 8.32891 17.3451 8.33478 16.9111C8.30212 16.458 8.19206 16.0138 8.00939 15.5978C7.67483 14.6782 6.7878 14.8238 6.11024 14.3139C5.17516 13.6077 5.53357 12.4371 5.21698 11.4661L4.99687 11.458C4.61059 12.4591 4.06619 13.1869 4.56657 14.2761C4.77578 14.7278 5.09923 15.1171 5.50495 15.4056C5.88982 15.6228 6.31224 15.7655 6.75002 15.826C7.00681 15.8994 7.64365 16.092 7.56111 16.5263L7.1209 16.88C6.82123 17.2579 6.6481 17.7206 6.62603 18.2024C6.65587 19.3474 7.07658 20.4478 7.81827 21.3206C7.84377 21.3545 7.87854 21.3804 7.9184 21.395C7.95826 21.4097 8.0015 21.4125 8.04291 21.4031C8.08432 21.3937 8.12214 21.3725 8.15179 21.3422C8.18145 21.3118 8.20168 21.2734 8.21006 21.2318C8.07888 20.1865 8.00272 19.135 7.98188 18.0817V18.0817Z" fill="black"/>
<path d="M53.3204 3.94473C50.8839 2.79572 48.0914 2.65906 45.5544 3.56468C44.2307 4.03039 43.0132 4.7552 41.9729 5.69678C41.411 6.25209 40.7758 6.72801 40.0851 7.11133C39.2786 7.4645 38.4295 7.71115 37.5594 7.84502C34.2026 8.6367 30.798 9.20981 27.367 9.56074C25.53 9.62339 23.6971 9.34783 21.9597 8.74782C20.5559 8.23843 19.0729 7.98184 17.5796 7.98992C16.2009 8.12439 14.8438 8.4262 13.5381 8.88868C12.8563 8.77026 12.1667 8.70282 11.4749 8.68693C11.0612 8.62104 10.6375 8.66334 10.245 8.80971C9.8525 8.95609 9.50454 9.20155 9.235 9.52223L9.3744 9.71995C10.1791 9.3447 11.0783 9.22119 11.9544 9.36558C10.08 9.81697 8.25259 10.4453 6.49688 11.242C6.44706 11.2606 6.40566 11.2966 6.38033 11.3433C6.35501 11.3901 6.34746 11.4444 6.35909 11.4963C6.37072 11.5482 6.40074 11.5941 6.4436 11.6256C6.48646 11.6571 6.53927 11.672 6.59226 11.6675C9.92735 11.0693 13.2252 10.2795 16.4695 9.30212C19.766 8.65501 22.6743 10.443 25.9179 10.5769C29.2905 10.4862 32.6412 10.0052 35.9031 9.14364C36.8653 8.95655 37.8631 8.81348 38.8257 8.56806C38.4629 10.0514 38.4725 11.6015 38.8536 13.0802C39.0625 14.0446 39.4012 14.9762 39.8606 15.8495C40.101 16.3469 40.3868 16.821 40.7142 17.2659L39.3404 17.3235C35.886 17.3291 32.4404 16.9763 29.0589 16.2707C27.4491 15.9772 25.8611 15.5872 24.2642 15.234C22.5563 14.8515 20.823 14.5933 19.0778 14.4614C17.4756 14.3396 15.8668 14.3309 14.2633 14.4354C12.4838 14.5517 10.6576 14.5821 8.89457 14.851C8.76654 14.8704 8.73976 15.0861 8.88576 15.0927C9.40191 15.117 9.91806 15.1192 10.4342 15.1137C10.3319 16.0517 10.3638 17.0106 10.3087 17.953C10.2484 18.2722 10.254 18.6003 10.3253 18.9173C10.3966 19.2342 10.532 19.5331 10.7233 19.7957C11.3322 20.5617 13.0872 21.7234 14.0249 20.9369L14.0432 20.5008C13.6903 20.1706 13.2651 20.1783 12.8257 20.0239C12.2643 19.8365 11.7697 19.4897 11.4023 19.0257C11.1145 18.3931 10.9943 17.6972 11.0534 17.0047C11.0113 16.3738 11.0091 15.7325 10.925 15.1063C12.0292 15.0854 13.1338 15.0421 14.2395 15.0961L15.3851 15.1492C14.9603 15.8293 14.6423 16.5705 14.4423 17.347C14.3961 17.7015 14.4266 18.0618 14.5319 18.4035C14.6643 18.8257 15.4523 19.7546 14.9545 20.1625L15.1096 20.3848C15.3483 20.1487 15.5224 19.8553 15.6152 19.5327C15.708 19.2101 15.7164 18.869 15.6397 18.5422C15.4824 17.9116 15.5332 17.2471 15.7846 16.6478C15.9239 16.1693 16.0123 15.6775 16.0484 15.1804C17.2326 15.2391 18.416 15.3165 19.5895 15.4827C22.932 15.9893 26.2425 16.6882 29.5046 17.5759C32.7547 18.4418 36.1114 18.8411 39.4739 18.7619C41.2593 18.7352 43.039 18.554 44.7932 18.2201L47.4278 17.6731C48.2224 17.4812 49.0061 17.247 49.7756 16.9713C49.8397 16.946 49.8925 16.8986 49.9247 16.8377C49.9569 16.7768 49.9663 16.7065 49.9512 16.6393C49.9362 16.5721 49.8976 16.5125 49.8424 16.4712C49.7873 16.4299 49.7193 16.4097 49.6505 16.4141C47.1332 16.6599 44.6024 16.9846 42.0668 17.1768C41.8283 16.5898 41.4296 16.0396 41.1724 15.4724C40.7922 14.6197 40.517 13.7239 40.3529 12.8047C40.1872 11.9335 40.1277 11.0454 40.1757 10.1598C40.2782 9.46771 40.3233 8.76832 40.3103 8.06879L40.4182 8.02184C41.6128 7.36355 42.7454 6.59862 43.8023 5.7364C45.1795 4.81764 46.7337 4.19729 48.365 3.91526C49.9963 3.63323 51.6685 3.69575 53.2742 4.09881L53.3204 3.94473Z" fill="black"/>
<path d="M31.3805 8.20941C30.1226 7.39435 28.6164 7.05148 27.1296 7.24168C26.3044 7.32457 25.4851 7.45849 24.6765 7.64264C23.8916 7.74441 23.1164 7.90991 22.3584 8.13751L22.4068 8.35395C23.1288 8.33891 23.843 8.17053 24.5631 8.1122C25.3566 8.07043 26.1521 8.08502 26.9436 8.15585C28.3644 8.24059 29.7525 8.61037 31.1623 8.69145C31.221 8.69882 31.2805 8.68721 31.3321 8.65832C31.3837 8.62942 31.4247 8.58477 31.4491 8.53089C31.4735 8.47701 31.48 8.41673 31.4677 8.35889C31.4553 8.30104 31.4248 8.24866 31.3805 8.20941V8.20941Z" fill="black"/>
<path d="M74.687 4.07223C72.7083 3.98405 70.7258 4.10109 68.7712 4.42147C66.6997 4.80474 64.6033 5.03841 62.4982 5.12067C58.7839 5.05023 55.7798 1.93793 51.9746 2.86751L51.9819 2.93281C53.9039 3.21418 55.7454 3.8958 57.3873 4.93358L57.7949 5.13791C57.336 5.19881 56.8778 5.27548 56.4266 5.37379C54.8275 5.67833 53.3079 6.308 51.9621 7.22378C51.3421 7.60303 50.8367 8.14341 50.4997 8.78733C50.1627 9.43125 50.0068 10.1546 50.0486 10.8801C50.2493 12.6338 50.7488 14.3402 51.5255 15.9253L51.6848 15.8674C51.2384 14.3521 51.0694 12.7687 51.1859 11.1934C51.1462 10.4728 51.3035 9.75505 51.6407 9.11706C52.0611 8.56264 52.5901 8.09979 53.1954 7.75681C54.4031 7.00527 55.74 6.4847 57.1379 6.22157C57.7942 6.09606 58.4568 6.00665 59.1229 5.95377L59.6306 5.9358C60.5242 6.26716 61.4648 6.45462 62.4171 6.4912C61.8622 7.16376 61.4252 7.92546 61.1247 8.74399C60.4722 10.5167 60.4283 12.4562 61 14.2565C61.0517 14.4286 61.2895 14.3512 61.2887 14.192C61.1872 12.4301 61.4354 10.6656 62.0187 9.00004C62.291 8.33545 62.6655 7.71746 63.1284 7.16839L63.8137 6.4248C65.4645 6.22377 67.0526 5.64672 68.688 5.32683C70.6748 4.93798 72.7599 4.91561 74.7225 4.45008C74.9133 4.40533 74.8762 4.08874 74.687 4.07223Z" fill="black"/>
<path d="M69.1576 13.4597L69.0138 13.4729C68.8897 15.2637 68.6267 17.0421 68.2273 18.7922C66.9468 18.5921 65.7126 18.1636 64.5835 17.5273C64.0058 17.1652 63.4542 16.7633 62.9327 16.3244C62.3428 15.938 61.8346 15.4394 61.437 14.857C61.3406 14.6912 61.0834 14.8357 61.1436 15.0089C61.3257 15.6268 61.5495 16.2316 61.8134 16.8193L60.6835 16.6835C59.6065 16.5533 58.528 16.4447 57.4436 16.397C55.3023 16.3031 53.1581 16.462 51.0179 16.5225C50.8477 16.5273 50.8345 16.8182 51.0069 16.8248C53.1654 16.9055 55.2928 17.2444 57.4351 17.491L60.4935 17.8296C61.2437 17.9752 62.0078 18.0367 62.7716 18.013C63.0828 18.2792 63.415 18.5197 63.765 18.7324C65.0302 19.5624 66.569 19.8668 68.0549 19.5809C67.7123 21.1257 67.3396 22.6653 67.0406 24.206C66.0248 27.4736 66.0442 30.9754 67.0963 34.2315C67.2321 34.5187 67.7042 34.4571 67.6668 34.1035C67.4509 32.3671 67.4257 30.6123 67.5916 28.8704C67.7882 27.1037 68.1499 25.3532 68.4863 23.6092C68.8194 21.8832 69.1653 20.1436 69.388 18.4C69.7147 16.7591 69.6356 15.0631 69.1576 13.4597Z" fill="black"/>
<path d="M78.1856 6.0691C76.2226 5.67598 74.2132 5.56774 72.2193 5.74774C70.4621 5.77756 68.7554 6.34045 67.3252 7.36186C66.7259 7.8192 66.2496 8.41833 65.9393 9.10538C65.6289 9.79243 65.4941 10.5459 65.5471 11.2979C65.6001 12.0499 65.8392 12.777 66.2429 13.4137C66.6466 14.0504 67.2022 14.5768 67.8597 14.9456L68.0017 14.7747C67.5522 14.2747 67.2097 13.6882 66.9952 13.051C66.7807 12.4138 66.6987 11.7395 66.7544 11.0695C66.8522 10.3783 67.1104 9.71947 67.5083 9.14581C67.9063 8.57215 68.4329 8.09953 69.0461 7.76575C70.4089 7.05104 71.9223 6.67103 73.461 6.65715C75.03 6.51738 76.6009 6.43264 78.1757 6.39156C78.3657 6.38642 78.3595 6.10652 78.1856 6.0691Z" fill="black"/>
<path d="M85.5193 35.0977C84.1226 34.9191 82.707 34.953 81.3204 35.1982C79.8398 35.3002 78.3644 35.4616 76.8816 35.5423C74.0762 35.7745 71.2517 35.5656 68.511 34.9231L68.4468 35.1355C69.697 35.7553 71.0359 36.1769 72.4157 36.3853C73.7687 36.5792 75.136 36.6556 76.5023 36.6139C78.0284 36.5724 79.5574 36.44 81.075 36.2735C81.8696 36.1861 82.6605 36.0691 83.4573 35.9979C84.1721 35.9945 84.8838 35.9029 85.5762 35.725C85.6423 35.6991 85.6982 35.6525 85.7356 35.5921C85.7729 35.5316 85.7896 35.4608 85.7832 35.39C85.7768 35.3193 85.7476 35.2526 85.7 35.1998C85.6524 35.1471 85.589 35.1113 85.5193 35.0977Z" fill="black"/>
<path d="M87.5711 17.1766C86.6173 16.8442 86.2255 15.3846 85.8469 14.5647C85.5139 13.6509 85.2443 12.7153 85.0399 11.7645L84.8682 11.7341C84.6509 12.0589 84.5335 12.4402 84.5307 12.831C83.4329 12.485 82.2779 12.3576 81.1311 12.456C80.7975 12.4732 80.4661 12.5199 80.1407 12.5954C80.8002 12.0203 81.2693 11.2584 81.4859 10.4105C81.7193 9.65407 81.6685 8.8384 81.3429 8.11681C81.0173 7.39522 80.4393 6.81738 79.7177 6.4919C79.6797 6.47588 79.6372 6.47392 79.5979 6.48636C79.5586 6.49881 79.525 6.52485 79.5031 6.55982C79.4813 6.59479 79.4726 6.6364 79.4786 6.6772C79.4847 6.71799 79.5051 6.7553 79.5361 6.78244C80.1219 7.2309 80.5455 7.85813 80.7428 8.56905C80.94 9.27997 80.9 10.0358 80.6289 10.722C80.1163 11.8479 79.2846 12.7987 78.2367 13.4564L77.7881 13.7572L77.8655 13.9062C78.9875 13.5042 80.1745 13.3148 81.3659 13.3475C82.4243 13.3214 83.5123 13.5309 84.5703 13.4351C84.7006 14.1305 84.9264 14.8046 85.2413 15.4381C85.7321 16.4939 86.264 17.4987 87.5234 17.4602C87.5554 17.4562 87.5854 17.442 87.6087 17.4196C87.632 17.3973 87.6475 17.368 87.6529 17.3361C87.6582 17.3043 87.6532 17.2715 87.6384 17.2428C87.6237 17.214 87.6001 17.1908 87.5711 17.1766V17.1766Z" fill="black"/>
<path d="M87.837 32.7052C86.7338 32.2127 85.56 31.897 84.3586 31.7697C83.0279 31.5676 81.7119 31.2786 80.4191 30.9043C77.9989 30.071 75.4628 29.6231 72.9035 29.5771C73.6443 27.5411 74.2316 25.4526 74.6607 23.329C75.1264 21.6959 75.7994 20.1292 76.6633 18.6672C76.8959 18.2589 77.1967 17.7699 77.4616 17.2479C77.9638 16.8326 78.4403 16.3652 78.9345 15.9734C79.7292 15.3238 80.5703 14.733 81.451 14.2056L81.3611 14.0328C80.2034 14.4709 79.0901 15.0184 78.0364 15.6679C78.1308 15.2215 78.0874 14.757 77.9121 14.3359L77.7286 14.3289C77.392 15.0146 77.0986 15.7207 76.85 16.443L75.6094 18.6576C74.8183 19.9897 74.2045 21.4194 73.7836 22.9105C73.1645 26.026 72.181 29.0578 70.8536 31.9436C70.7436 32.1446 71.0315 32.2811 71.1724 32.1428C71.6807 31.6416 72.1161 31.0714 72.4659 30.4491C73.6868 30.6769 74.9403 30.7488 76.1666 30.9443C77.4909 31.1553 78.8123 31.3845 80.137 31.5944C81.4209 31.7983 82.7049 31.9737 84.0013 32.0819C85.2903 32.1186 86.5605 32.4016 87.7431 32.9157L87.837 32.7052Z" fill="black"/>
<path d="M93.4437 37.3422C92.6477 37.1732 91.8774 36.9005 91.1524 36.5311C90.6258 36.3828 90.0881 36.2774 89.5445 36.2159C88.9473 36.1385 88.349 36.0784 87.7595 35.95C87.2544 35.7582 86.7197 35.6562 86.1795 35.6484L86.0903 35.7889C86.4752 36.8964 88.4627 36.9262 89.4055 37.056C90.2078 37.1493 90.9954 37.3416 91.7504 37.6287C92.3076 37.8991 92.9465 37.9492 93.5391 37.7688C93.7959 37.6888 93.677 37.3447 93.4437 37.3422Z" fill="black"/>
<path d="M96.5332 35.9548C95.4538 35.1338 94.2245 34.5315 92.9142 34.1819C91.6554 33.7333 90.3566 33.4057 89.0356 33.2035L88.9832 33.377C90.2198 33.9607 91.5092 34.3616 92.7815 34.858C93.9499 35.4084 95.1459 35.8982 96.3648 36.3253C96.579 36.3826 96.6751 36.0825 96.5332 35.9548Z" fill="black"/>
<path d="M96.1852 36.6404C94.9151 36.6856 93.6435 36.6625 92.3759 36.571L92.3506 36.6547C92.9266 37.0191 93.5855 37.232 94.2659 37.2734C94.9462 37.3148 95.6261 37.1835 96.2421 36.8917L96.1852 36.6404Z" fill="black"/>
<path d="M100.071 33.0654C98.9917 32.2448 97.7624 31.6429 96.4522 31.2936C95.1933 30.845 93.8946 30.5174 92.5736 30.3152L92.5208 30.4865C93.7574 31.0702 95.0468 31.4711 96.319 31.9675C97.4875 32.5179 98.6835 33.0077 99.9024 33.4348C100.117 33.4928 100.213 33.1931 100.071 33.0654Z" fill="black"/>
<path d="M99.7246 33.7487C98.4539 33.7936 97.1817 33.7701 95.9135 33.6782L95.8882 33.7619C96.4642 34.1263 97.1231 34.3391 97.8035 34.3806C98.4838 34.422 99.1636 34.2907 99.7797 33.9989L99.7246 33.7487Z" fill="black"/>
<path d="M94.6648 34.1997C94.4253 33.3215 93.6674 33.1443 92.8944 32.8266C91.9656 32.4919 91.0607 32.0942 90.186 31.6362L90.0488 31.7635C90.8522 33.5302 93.167 33.1403 94.3548 34.418C94.499 34.5754 94.7081 34.3641 94.6648 34.1997Z" fill="black"/>
<path d="M84.3506 16.5361C83.3666 19.1305 82.764 21.8537 82.5615 24.621C82.5661 24.6599 82.5832 24.6963 82.6102 24.7246C82.6372 24.753 82.6727 24.7718 82.7113 24.7783C82.75 24.7847 82.7897 24.7785 82.8244 24.7604C82.8592 24.7424 82.8872 24.7135 82.9042 24.6782C83.7552 22.0447 84.2792 19.3166 84.4643 16.5552L84.3506 16.5361Z" fill="black"/>
<path d="M88.1118 30.7861C86.6419 30.3584 85.1512 30.0057 83.6455 29.7292C82.7368 29.5091 81.834 29.2688 80.9411 28.9919C80.2019 28.7626 79.0585 28.6441 78.7657 27.7927C78.6148 27.0569 78.5606 26.3047 78.6043 25.5549C78.5662 24.6637 78.5503 23.7723 78.5566 22.8806C78.5318 21.1159 78.62 19.3515 78.8208 17.5981L78.6399 17.5706C78.241 19.4511 77.9861 21.3593 77.8776 23.2786C77.8457 24.2842 77.8552 25.2875 77.9143 26.2919C77.858 27.0362 77.9695 27.7836 78.2404 28.479C78.6455 28.9821 79.2042 29.3386 79.8311 29.4941C80.6693 29.8242 81.5343 30.0906 82.399 30.3378C84.2177 30.9572 86.1389 31.2197 88.0572 31.1108C88.2142 31.0902 88.2798 30.8455 88.1118 30.7861Z" fill="black"/>
<path d="M91.4797 29.634C89.5387 28.4264 87.5864 27.2403 85.5735 26.149C84.1461 25.375 82.3134 24.529 80.8779 25.6948L80.9586 25.85C82.8703 25.0892 84.696 26.5756 86.3215 27.3908C88.0039 28.2345 89.6734 29.0676 91.3785 29.8574C91.5263 29.9245 91.6088 29.7154 91.4797 29.634Z" fill="black"/>
<path d="M99.594 8.16654C99.6651 6.79785 99.32 5.43972 98.6043 4.2709C97.8886 3.10209 96.8358 2.17735 95.5844 1.61838C94.2018 1.09472 92.7167 0.898101 91.2454 1.0439C89.8295 1.09241 88.4336 1.39342 87.1236 1.93277C85.8363 2.53842 84.7024 3.86199 83.235 3.93903C82.352 3.98562 81.4114 3.81247 80.5255 3.77688C79.747 3.7478 78.9674 3.76483 78.1909 3.82788L78.2071 4.0113C79.0729 3.98998 79.9391 4.04164 80.7962 4.16574C81.4228 4.26442 82.02 4.4904 82.6426 4.59862C83.6106 4.72429 84.5903 4.4788 85.3847 3.91152C86.4635 3.07399 87.708 2.47532 89.0357 2.15517C90.3634 1.83503 91.7439 1.80073 93.0859 2.05456C94.4331 2.13583 95.7124 2.67414 96.7125 3.58061C97.7125 4.48707 98.3735 5.70749 98.5863 7.04033C98.9611 8.44754 98.9505 9.92965 98.5557 11.3314C98.1608 12.7331 97.3962 14.0028 96.342 15.0074C96.1586 15.1322 96.3185 15.4759 96.5217 15.3743C97.0992 15.1016 97.6152 14.7144 98.0386 14.2363C98.462 13.7582 98.7839 13.1991 98.9847 12.5929C99.4605 11.168 99.6672 9.667 99.594 8.16654V8.16654Z" fill="black"/>
<path d="M90.4142 9.13389C88.7009 8.95468 87.0173 8.55912 85.4035 7.95668C84.0055 7.01379 82.521 6.20592 80.9701 5.54395C80.812 5.49956 80.7599 5.71343 80.8506 5.80588C81.3951 6.31748 82.0018 6.75848 82.6565 7.11845C83.3796 7.5616 83.9724 8.10012 84.6544 8.59022C85.225 8.98541 85.8445 9.3049 86.4974 9.54071L86.3312 9.93177C86.2921 10.1242 86.3211 10.3243 86.413 10.4978L86.7281 10.6178C86.8503 10.4564 86.7501 10.2307 86.8286 10.0444L87.0953 9.75092C88.8665 10.0975 90.599 10.6181 92.2678 11.3052C93.5833 12.1042 95.4256 13.0698 95.649 14.7499L95.8691 14.758C96.123 11.7689 93.0246 9.65627 90.4142 9.13389Z" fill="black"/>
<path d="M92.9752 15.4679C92.7471 15.2331 92.4041 15.1865 92.1436 14.991L91.8135 14.7081L91.3626 14.418L91.3296 14.4396C91.3341 14.6414 91.3679 14.8414 91.4297 15.0335L91.7966 15.4671C91.9567 15.5822 92.1394 15.6621 92.3326 15.7015C92.5258 15.741 92.7252 15.7391 92.9177 15.6961L92.9752 15.4679Z" fill="black"/>
<path d="M93.9672 14.9465C93.6817 14.5974 93.2995 14.3403 92.8685 14.2073L92.2199 14.0452C92.022 13.9691 91.8147 13.9197 91.6037 13.8984L91.5981 13.9164C91.812 14.1406 92.1037 14.2704 92.3351 14.4795C92.5533 14.6707 92.7885 14.8416 93.0376 14.9902C93.235 15.1131 93.7211 15.5859 93.9548 15.2836L93.9672 14.9465Z" fill="black"/>
<path d="M90.0982 16.6499C89.9253 16.4686 89.7115 16.3314 89.4746 16.2497L89.1654 16.0842L88.8781 15.8733L88.7681 15.9507L88.9053 16.2783L89.1221 16.6264C89.1979 16.7497 89.2984 16.856 89.4172 16.9387C89.536 17.0214 89.6705 17.0787 89.8125 17.107L90.0858 17.005L90.1276 16.9382L90.0982 16.6499Z" fill="black"/>
<path d="M95.6433 9.94197C95.411 9.09157 94.9335 8.32842 94.2702 7.74778C93.6069 7.16714 92.7872 6.79474 91.9136 6.67706C89.3009 6.02261 86.5074 6.48227 83.9069 5.6499L83.8335 5.81058C84.7447 6.33 85.71 6.74824 86.7121 7.05784C87.8007 7.30132 88.9112 7.43309 90.0266 7.4511C92.0137 7.56923 94.5336 7.90893 95.4558 9.97903L95.6433 9.94197Z" fill="black"/>
<path d="M92.507 16.9025C92.4055 16.9255 92.3002 16.9264 92.1983 16.905C92.0965 16.8836 92.0004 16.8404 91.9168 16.7785L91.5367 16.4362C91.4485 16.3572 91.3411 16.3026 91.2253 16.2779C91.1095 16.2532 90.9892 16.2592 90.8764 16.2953L90.8459 16.3606C90.8909 16.5465 90.9833 16.7175 91.114 16.8569C91.2448 16.9964 91.4095 17.0996 91.5921 17.1563C91.7549 17.2008 91.9256 17.208 92.0916 17.1775C92.2576 17.1471 92.4146 17.0796 92.551 16.9802L92.507 16.9025Z" fill="black"/>
</svg>
