<svg width="101" height="73" viewBox="0 0 101 73" fill="none" xmlns="http://www.w3.org/2000/svg">
<path d="M77.2365 41.0771C76.634 43.3852 74.338 43.8014 72.3089 43.8988C68.2335 44.0121 64.3606 45.6998 61.503 48.6076C55.5481 53.2471 48.4579 56.2046 40.9712 57.1721C39.011 57.3278 37.0384 57.1802 35.1231 56.7346C33.3765 56.3949 31.5798 56.4042 29.8368 56.762C14.5788 60.5267 14.0403 63.3669 17.8862 61.9292C22.5211 59.8028 27.4406 58.3613 32.4902 57.65C34.4427 57.7209 36.3885 57.9183 38.3155 58.2409C40.1762 58.433 42.0556 58.3235 43.8814 57.9165C46.8216 57.2889 54.8434 54.5887 59.1245 53.018C59.0517 54.1267 59.1541 55.2398 59.4281 56.3166C59.8575 58.1973 60.6704 59.9692 61.8159 61.5214L62.0128 61.4166C61.2395 59.7946 60.7435 58.0544 60.5455 56.2684C60.4339 55.4147 60.3831 54.5542 60.3935 53.6933L60.4454 52.524C61.1263 50.8361 62.2045 49.3375 63.5884 48.1554C64.9722 46.9732 66.6209 46.1425 68.3944 45.7337C72.3089 44.3859 72.9044 45.5946 74.9919 44.5319C75.6583 44.2089 76.2332 43.7241 76.664 43.1217C77.0948 42.5194 77.3678 41.8187 77.458 41.0836L77.2365 41.0771Z" fill="black"/>
<path d="M66.2559 62.8281C65.6117 62.9408 39.2689 65.2071 34.2495 65.1117C27.6355 64.8802 21.0202 65.5317 14.5784 67.049C14.9348 67.2612 31.42 66.2578 35.4045 66.3009C41.7754 66.37 65.3739 64.4846 67.3168 63.9724C69.2597 63.4603 68.3105 62.4689 66.2559 62.8281Z" fill="black"/>
<path d="M14.3198 61.5672C14.2869 62.7147 13.6246 63.7705 13.8062 64.9227C14.1028 65.9949 14.5706 67.0122 15.1916 67.9353C15.2348 68.0181 15.2486 68.1131 15.2307 68.2048C15.2129 68.2965 15.1644 68.3794 15.0932 68.4399C15.022 68.5004 14.9324 68.5349 14.839 68.5378C14.7457 68.5407 14.6541 68.5117 14.5793 68.4557C13.5661 67.6582 12.8687 66.5269 12.6114 65.2634C12.2708 63.6472 13.5087 62.8533 13.8716 61.4601C13.936 61.2149 14.3267 61.3183 14.3198 61.5672Z" fill="black"/>
<path d="M2.29838 71.7001C2.6744 71.7459 3.05567 71.6829 3.39698 71.5186C3.73829 71.3543 4.02534 71.0956 4.22411 70.7732C4.47113 70.4396 4.74073 70.1234 5.03101 69.8268C5.68344 69.2503 6.47693 68.8569 7.33076 68.6866C9.27734 68.2463 11.2902 69.0509 13.2335 68.6491C13.4718 68.5995 13.6507 68.9387 13.463 69.0838C11.6693 70.4668 8.98211 69.1853 6.94701 70.0205C5.77257 70.5025 5.36656 71.6635 4.34183 72.2799C4.01102 72.5325 3.60143 72.6598 3.18571 72.6392C2.76999 72.6186 2.37501 72.4514 2.07082 72.1673C2.03228 72.1262 2.00714 72.0743 1.99873 72.0186C1.99031 71.9629 1.99901 71.906 2.02369 71.8553C2.04836 71.8047 2.08784 71.7627 2.13689 71.735C2.18594 71.7073 2.24226 71.6951 2.29838 71.7001V71.7001Z" fill="black"/>
<path d="M6.96844 58.9525C7.56493 57.6927 8.41771 54.6848 10.1344 54.536C11.0298 54.4586 12.0347 55.2906 12.6956 55.8129C13.5286 56.5038 14.233 57.3365 14.7761 58.2726L14.5476 58.4185C13.7379 57.7238 12.8651 57.1061 11.9406 56.5735C11.4961 56.307 10.9047 55.8662 10.3926 55.9223C9.85216 55.9816 9.47907 56.8492 9.26958 57.2909C8.65336 58.8814 7.91677 60.4226 7.06623 61.9011C4.52448 64.6429 2.34391 67.6987 0.577626 70.9939C0.496982 71.222 0.073831 71.1469 0.121105 70.8855C0.990578 66.057 4.96624 63.183 6.96844 58.9525Z" fill="black"/>
<path d="M18.2845 57.7504C17.8614 56.7509 17.2661 55.8335 16.5256 55.04C15.9328 54.4375 15.0425 53.4799 14.1434 53.4406C13.0037 53.3905 12.0842 54.6331 11.376 55.8191C11.8305 56.0007 12.2637 56.2318 12.6677 56.5083L12.9458 56.061C13.2081 55.6518 13.6873 54.8384 14.2296 54.8495C14.7445 54.8602 15.2766 55.3746 15.6844 55.6967C16.5355 56.3453 17.3247 57.0714 18.0416 57.8658L18.2845 57.7504Z" fill="black"/>
<path d="M96.8829 18.7292C95.7919 18.2505 94.6434 17.9154 93.4661 17.7323C92.5127 17.2234 91.4693 16.905 90.3942 16.7947L90.2886 16.9967C90.7822 18.1142 92.1888 18.5656 93.2511 18.8993C94.3748 19.4223 95.6489 19.5245 96.8416 19.1876L96.8829 18.7292Z" fill="black"/>
<path d="M97.5122 8.01561C96.8846 8.17413 96.3072 8.48813 95.833 8.92865L95.8474 8.975C96.4844 9.07515 97.1365 9.01135 97.742 8.78961C97.8258 8.74491 97.8916 8.67264 97.9283 8.58501C97.9649 8.49739 97.9702 8.3998 97.9431 8.30875C97.9161 8.21771 97.8584 8.13881 97.7799 8.08539C97.7014 8.03197 97.6068 8.00732 97.5122 8.01561V8.01561Z" fill="black"/>
<path d="M98.4031 9.60453C97.9962 9.63109 97.5935 9.70243 97.2022 9.81726L96.6753 10.036L96.4825 10.2094L96.4102 10.3526L96.469 10.5505L96.8138 10.6432L97.3811 10.4986C97.7734 10.3483 98.1474 10.1539 98.4958 9.91922C98.53 9.90121 98.5569 9.87191 98.5719 9.83631C98.587 9.80071 98.5892 9.761 98.5783 9.72392C98.5674 9.68684 98.544 9.65469 98.512 9.63293C98.4801 9.61117 98.4416 9.60113 98.4031 9.60453V9.60453Z" fill="black"/>
<path d="M99.8829 13.0752C99.8548 12.7819 99.7303 12.5063 99.5288 12.2914L98.7154 11.2389L98.5829 11.3246C98.7756 11.7647 98.9447 12.2148 99.0894 12.6729C99.1576 12.8977 99.247 13.058 99.0806 13.2578L98.5286 13.5169C98.1857 13.6323 98.3664 14.1926 98.7103 14.131C99.2716 14.0318 99.9061 13.7634 99.8829 13.0752Z" fill="black"/>
<path d="M98.9137 15.137C98.5966 14.909 98.2236 15.0953 97.9001 15.2241C97.5501 15.3632 97.2813 15.6204 96.9203 15.7298C96.6065 15.8248 96.7349 16.2618 97.0259 16.2716C97.472 16.3483 97.9305 16.3056 98.3547 16.1478C98.5769 16.055 98.7709 15.9056 98.9174 15.7145C99.0226 15.562 99.1018 15.2719 98.9137 15.137Z" fill="black"/>
<path d="M84.5824 61.4505C84.3169 59.592 84.0726 57.7316 83.877 55.8638C83.3486 52.0563 83.028 48.2228 82.9167 44.3804C82.9371 40.6184 82.8171 36.8258 82.6766 33.0652C82.6076 31.2113 82.5279 29.3532 82.5566 27.4979C82.3968 25.4514 83.0373 23.4227 84.3433 21.8389L84.2993 21.7903C83.2208 23.0035 82.4261 24.4419 81.9732 26.0007C81.5202 27.5595 81.4203 29.1997 81.6807 30.802C81.6093 34.894 81.5782 38.98 81.7733 43.0701C81.8225 44.0921 81.9555 45.0992 82.0417 46.1179C82.1279 47.1366 82 48.1679 82.0264 49.1917C82.0727 51.0089 82.2377 52.8318 82.4347 54.6412C81.5867 55.1722 80.8148 55.816 80.1401 56.5548C79.1825 57.3654 78.1759 58.0954 77.1511 58.8129C75.053 60.3325 72.7477 61.5434 70.3057 62.4085L70.3984 62.669C72.9835 62.0343 75.4723 61.057 77.7986 59.763C78.9291 59.0893 79.9957 58.3136 80.985 57.4456C81.5624 57.0008 82.0983 56.5044 82.5858 55.9625C82.799 57.7575 83.0493 59.5503 83.364 61.3291C83.6115 63.3934 84.1063 65.4205 84.8378 67.3667C84.8619 67.43 84.9081 67.4824 84.9678 67.5143C85.0276 67.5462 85.0968 67.5554 85.1628 67.5402C85.2288 67.525 85.287 67.4864 85.3268 67.4316C85.3666 67.3768 85.3852 67.3095 85.3792 67.242C85.2387 65.2964 84.9725 63.3618 84.5824 61.4505V61.4505Z" fill="black"/>
<path d="M90.0171 22.7878L89.8137 22.7804C89.6079 26.3955 88.8812 29.9433 88.6735 33.5603C88.4636 37.2217 88.3093 40.9059 87.8147 44.5404C87.4162 48.0789 87.2545 51.6401 87.3309 55.2002C87.3309 56.9522 87.4514 58.7013 87.5028 60.4518C87.3811 62.227 87.4544 64.0101 87.7216 65.7693C87.7869 66.0158 88.1248 65.9412 88.1711 65.7266C88.351 63.9675 88.3684 62.1956 88.223 60.4333C88.255 58.6526 88.3908 56.8757 88.4367 55.0955C88.5294 51.517 88.7574 47.9117 88.6708 44.336C88.6586 40.6141 88.941 36.897 89.5152 33.2196C89.9492 29.7603 90.117 26.2728 90.0171 22.7878V22.7878Z" fill="black"/>
<path d="M80.3949 57.1584C80.1724 56.3102 79.1134 55.6452 78.5188 55.0408C77.7261 54.2247 77.0107 53.3369 76.3817 52.3888C75.7489 51.4861 75.2402 50.5025 74.8694 49.4643C74.4986 48.3821 74.4161 47.2095 74.0083 46.1496L73.7839 46.1407C73.3578 48.5411 73.774 51.015 74.9621 53.1438C75.5112 54.2701 76.2402 55.2994 77.1205 56.1911C77.7916 56.8822 78.9544 58.0042 79.9764 57.8355C80.0518 57.8252 80.1239 57.7984 80.1877 57.7569C80.2515 57.7154 80.3053 57.6604 80.3453 57.5956C80.3853 57.5309 80.4105 57.4582 80.4191 57.3826C80.4276 57.307 80.4194 57.2304 80.3949 57.1584V57.1584Z" fill="black"/>
<path d="M91.3755 17.3459C90.8287 17.8404 90.4817 18.5177 90.3999 19.2504C90.2525 19.8325 89.8465 20.6917 90.1218 21.2711L90.1853 21.2915C90.6446 20.8744 90.6951 20.0781 91.0404 19.5507C91.5023 19.0483 91.8781 18.4731 92.1527 17.8483C92.2732 17.3965 91.7055 17.1304 91.3755 17.3459Z" fill="black"/>
<path d="M93.8752 31.2563C92.9895 29.2634 91.9347 27.3275 90.9577 25.3772L90.7825 25.4425C91.9291 28.2521 92.7754 31.1632 93.6588 34.0682C94.0007 34.7583 94.155 35.5261 94.1062 36.2947C94.0574 37.0632 93.8072 37.8054 93.3807 38.4466C92.5418 39.3499 91.4772 39.2484 90.4609 39.7031L90.3278 40.1369C90.6071 40.4467 90.9904 40.6432 91.4049 40.6889C91.0434 41.5626 90.8668 42.5511 90.5123 43.4234C90.4024 43.6931 89.2146 46.3433 88.8401 47.0097L88.911 47.0561L89.7453 46.049C89.7161 46.7697 89.7452 47.5024 89.7258 48.1967C89.6882 49.5741 89.6479 50.9548 89.6526 52.3327C89.6623 55.0728 89.641 57.848 89.7453 60.5825L89.9116 60.5885C90.1568 57.8647 90.2801 55.0945 90.4321 52.3614C90.497 51.1916 90.5299 50.0172 90.56 48.846C90.6854 47.5134 90.6977 46.1726 90.5966 44.8379L91.2019 43.7437C91.7332 42.7855 92.0939 41.7423 92.2679 40.6606C92.6481 40.5892 93.0145 40.4578 93.3534 40.2713C93.9807 39.9302 94.508 39.4309 94.8828 38.8232C95.2577 38.2154 95.4672 37.5201 95.4904 36.8064C95.3695 34.8596 94.8178 32.964 93.8752 31.2563V31.2563Z" fill="black"/>
<path d="M82.4436 20.1779C81.3344 21.3023 80.4429 22.6223 79.8138 24.071C79.1041 25.6452 78.5604 27.289 78.1917 28.9759C77.7917 30.6393 77.5742 32.3414 77.5428 34.0519C77.3724 35.7234 77.4562 37.411 77.7912 39.0574L77.9442 39.043C78.2348 37.4236 78.0369 35.725 78.3066 34.0783C78.5662 32.5002 78.9091 30.9216 79.3147 29.3755C79.7739 27.754 80.3284 26.1611 80.9753 24.6049C81.6085 23.2027 82.1655 21.7672 82.6438 20.3048L82.4436 20.1779Z" fill="black"/>
<path d="M85.4845 15.8135L85.1976 15.6744C84.6368 15.915 84.4055 16.7108 84.1891 17.2563C83.8836 18.0261 83.5059 18.7292 83.1375 19.4693L83.2473 19.5398C83.8535 18.9281 84.4009 18.2609 84.8824 17.5469C85.2059 17.0718 85.6726 16.4053 85.4845 15.8135Z" fill="black"/>
<path d="M91.6946 0.964014C90.0945 0.783804 88.4746 1.00079 86.9782 1.59576C85.4819 2.19074 84.1553 3.14536 83.1158 4.37517C81.1137 7.11228 79.9556 10.375 79.7839 13.7619C79.6778 15.8337 79.2704 17.879 78.5747 19.8333C77.6976 21.3857 77.2093 23.1272 77.1514 24.9093C77.1576 24.9722 77.1864 25.0308 77.2324 25.0741C77.2785 25.1174 77.3387 25.1426 77.4019 25.1449C77.4651 25.1472 77.527 25.1265 77.5761 25.0867C77.6252 25.0469 77.6583 24.9906 77.6691 24.9283C78.1924 23.3388 78.8877 21.8113 79.7426 20.3728C80.3718 18.8863 80.7595 17.3089 80.8911 15.7001C81.0255 12.6051 81.7821 9.56886 83.1158 6.77271C83.8933 5.35332 85.0551 4.18178 86.4679 3.39245C87.8807 2.60311 89.4874 2.22793 91.1037 2.30993C94.0709 2.71347 96.7578 4.2747 98.5777 6.65266L98.6365 6.61003C98.1607 5.0918 97.2489 3.74703 96.0146 2.74312C94.7803 1.73921 93.278 1.1205 91.6946 0.964014V0.964014Z" fill="black"/>
<path d="M95.5826 4.87757C92.7063 5.79154 91.936 9.43906 89.5051 10.988C87.0594 12.5462 83.7391 13.3415 82.3904 16.2224L82.4529 16.2628C84.134 13.8527 87.0005 13.621 89.4333 12.4442L89.4523 12.4859L89.6979 12.7932L90.1039 13.056L90.2332 12.9327L90.1711 12.2607L90.1684 12.0484L90.6949 11.7003C92.6415 9.77653 94.4029 7.67393 95.9557 5.42029C96.2009 5.15936 95.8783 4.78348 95.5826 4.87757Z" fill="black"/>
<path d="M58.2633 50.2426C55.2684 50.7574 52.3454 51.6272 49.5561 52.8334C46.5691 54.099 43.3753 54.8059 40.1332 54.919C36.7709 54.5523 33.3818 54.4992 30.0096 54.7605C26.9142 55.2875 23.9355 56.3543 21.2092 57.9121L21.2305 57.9543C22.7659 57.2801 24.3546 56.7346 25.9802 56.3233C27.6158 55.9961 29.2734 55.79 30.9394 55.7069C34.3542 55.4645 37.6926 56.2454 41.0894 56.112C44.0058 55.859 46.8422 55.0256 49.4319 53.6607C52.2367 52.22 55.2105 51.1353 58.2842 50.4316L58.2633 50.2426Z" fill="black"/>
<path d="M99.9396 70.1401C97.5643 69.8158 95.1707 69.6441 92.7734 69.6261C91.5397 69.6113 90.3068 69.6261 89.0735 69.6201C88.4153 69.7328 87.7385 69.6553 87.1227 69.3967C86.507 69.1381 85.9779 68.7091 85.5975 68.1602L85.3435 68.2552C85.7718 70.6462 88.3589 70.7829 90.2929 70.8464C93.5045 70.9923 96.7224 70.908 99.922 70.5943C99.9749 70.5859 100.023 70.5594 100.059 70.5193C100.094 70.4792 100.115 70.428 100.117 70.3744C100.119 70.3209 100.103 70.2682 100.07 70.2255C100.038 70.1828 99.9917 70.1526 99.9396 70.1401V70.1401Z" fill="black"/>
<path d="M99.3159 68.7644C98.0575 67.5815 96.5672 66.6728 94.9393 66.0957C93.2522 65.7514 91.5076 65.8097 89.8472 66.2658L89.8736 66.5601C91.5508 66.7029 93.2175 66.9495 94.8642 67.2984C96.3594 67.7554 97.5668 68.941 99.0902 69.2756C99.152 69.2822 99.2143 69.2689 99.2681 69.2378C99.3219 69.2067 99.3645 69.1592 99.3896 69.1024C99.4147 69.0455 99.4211 68.9821 99.4079 68.9214C99.3946 68.8606 99.3624 68.8056 99.3159 68.7644V68.7644Z" fill="black"/>
<path d="M98.533 62.8134C97.3559 61.5707 95.7741 60.7886 94.072 60.6079C92.3698 60.4272 90.6591 60.8597 89.2473 61.8276L89.3215 62.0357C90.8274 61.8053 92.3583 61.7897 93.8686 61.9894C95.3855 62.226 96.8712 62.6315 98.298 63.1981C98.3475 63.2142 98.4011 63.2131 98.4499 63.195C98.4988 63.1769 98.5401 63.1429 98.5673 63.0985C98.5944 63.054 98.6058 63.0017 98.5996 62.95C98.5934 62.8983 98.5699 62.8502 98.533 62.8134V62.8134Z" fill="black"/>
<path d="M95.6316 63.9888C94.5464 63.7109 93.4451 63.4996 92.334 63.3562C91.3344 63.2654 90.3275 63.2979 89.3358 63.4531L89.2927 63.7173C90.2936 64.0728 91.3348 64.3024 92.3924 64.4009C93.4677 64.4598 94.5454 64.4546 95.62 64.3851C95.8481 64.386 95.8453 64.0296 95.6316 63.9888Z" fill="black"/>
</svg>
