<svg width="100" height="320" viewBox="0 0 100 320" fill="none" xmlns="http://www.w3.org/2000/svg">
<path d="M69.345 6.68978C68.0382 0.263576 60.2629 -0.623341 54.8664 0.315603L54.8567 0.858886C60.1146 1.09262 65.11 3.2224 68.9191 6.85434L69.345 6.68978Z" fill="black"/>
<path d="M54.8849 7.75439C51.9664 9.5209 49.5301 11.9816 47.7927 14.9175C46.0553 17.8533 45.0708 21.1732 44.9267 24.5816C44.2661 28.7923 44.0229 33.1252 43.62 37.3699C43.2855 42.0121 41.2487 46.3675 37.9004 49.6003L38.0541 49.7613C42.0811 46.7782 44.9873 42.527 46.3049 37.6917C47.0003 39.8794 47.1171 42.2098 46.644 44.456C46.1709 46.7023 45.1241 48.7877 43.6054 50.509L43.7325 50.6833C50.6378 47.7164 49.4194 39.2937 47.4036 32.8675L47.6456 30.8977C48.0316 26.693 48.0678 22.3818 48.8386 18.2268C49.0286 16.1669 49.6976 14.18 50.7922 12.4248C51.8867 10.6695 53.3765 9.19444 55.1426 8.11739L54.8849 7.75439Z" fill="black"/>
<path d="M51.7201 134.419C49.4627 132.728 46.7676 131.72 43.9545 131.515C41.2347 131.779 38.4995 131.201 36.1187 129.86L36.0098 129.996C37.5029 131.553 38.7721 133.456 41.013 133.759C42.5679 133.969 44.1287 133.943 45.6799 134.223C47.5535 134.678 49.4554 135.008 51.3729 135.209L51.7201 134.419Z" fill="black"/>
<path d="M62.5874 166.373C61.1862 167.918 59.2963 169.012 57.9895 170.648C57.8751 166.99 57.5519 163.342 57.0215 159.721L56.5738 159.746C56.966 163.683 56.8823 167.653 56.3245 171.57C54.8176 171.394 53.2989 171.342 51.7835 171.415C49.0429 171.35 46.3011 171.226 43.5629 171.109C37.884 171.076 32.229 170.369 26.7163 169.005C26.2172 164.129 26.2741 159.213 26.8857 154.351C27.3096 150.93 28.3879 147.623 30.0619 144.61C31.0868 142.78 33.1583 139.81 34.1009 137.868L33.6592 136.594L33.0058 135.693C32.1588 135.044 30.4649 138.202 29.8453 138.982C28.896 140.147 28.0118 141.364 27.1967 142.627C25.5448 145.191 24.3756 148.036 23.7471 151.021C22.5877 157.908 22.5701 164.939 23.695 171.833C27.0514 186.941 28.9293 202.34 29.3021 217.812C29.2549 218.553 30.3221 218.506 30.5121 217.898C32.6647 203.631 31.6266 189.064 27.4726 175.246L27.0527 172.157C27.948 172.654 28.9101 173.021 29.9095 173.246C33.863 174.155 37.8936 174.689 41.9476 174.839C45.5402 175.079 49.1445 175.086 52.7382 174.862C53.8361 174.812 54.9186 174.584 55.9434 174.187C55.0262 179.914 53.5815 185.611 52.5482 191.127C51.6153 196.11 50.7877 201.087 49.758 206.054C48.6411 210.927 48.2457 215.937 48.5843 220.924C48.5953 221.045 48.6491 221.159 48.736 221.244C48.823 221.329 48.9376 221.381 49.0591 221.389C49.1806 221.398 49.3013 221.363 49.3994 221.291C49.4975 221.219 49.5667 221.114 49.5946 220.995C50.7949 215.829 52.4538 210.76 53.6311 205.578C54.7963 200.447 55.5332 195.242 56.2749 190.037C56.8799 185.83 57.4026 181.606 57.7414 177.367C58.3767 175.946 58.2726 174.482 58.8691 172.853C60.0043 170.654 61.4007 168.6 63.0278 166.736L62.5874 166.373Z" fill="black"/>
<path d="M77.0627 103.459C75.3687 102.422 73.6134 101.49 71.8065 100.666C69.9778 100.054 68.088 99.6417 66.1704 99.4367C61.8185 98.8793 57.4018 99.1101 53.1317 100.118C48.8259 100.941 44.9363 103.225 42.1209 106.585C41.7238 105.361 41.2247 104.172 40.629 103.032C38.6797 99.3109 35.8883 96.1891 33.7188 92.6173L33.449 92.1671C34.2662 91.9237 35.0483 91.5751 35.7758 91.1302C38.4207 89.6139 40.9403 87.8886 43.3103 85.9708C47.5618 82.434 50.241 77.3585 50.7626 71.8528C51.0423 70.1836 51.1799 68.4936 51.174 66.8011C53.5621 69.9707 56.6777 72.5193 60.2577 74.2318C63.8378 75.9443 67.7772 76.7705 71.7436 76.6407C74.6343 76.36 78.557 75.1343 77.4438 71.4523C76.6543 69.6241 75.2755 68.1128 73.5271 67.1593C70.8953 65.7087 68.5966 63.7228 66.7791 61.3296L66.1741 61.7676C68.0967 64.7926 71.1628 65.9094 73.6421 68.3124C79.1741 73.6738 70.9922 73.0313 68.0556 72.4469C60.9989 70.2594 54.5089 66.5484 49.0444 61.5764C48.2792 60.6609 47.4508 59.8001 46.5652 59.0004C43.3539 56.0057 38.8128 50.8935 33.9451 52.5052V52.5536C34.8163 52.745 35.6516 53.0738 36.4195 53.5277C34.636 53.5548 32.8524 53.4865 31.0762 53.3232C29.2785 52.8532 27.3913 52.8436 25.589 53.2953C22.6238 54.6398 20.2746 57.0529 19.0103 60.0531C16.675 64.5228 15.3187 69.4086 13.419 74.0598C12.5793 76.3531 11.6019 78.5937 10.492 80.7691C9.16106 83.1431 7.43322 85.2582 6.12765 87.6733C3.70949 91.6144 1.73142 95.8091 0.228993 100.182C-0.4309 103.904 0.347601 107.737 2.40696 110.906C7.39094 118.6 14.1595 124.976 22.1369 129.493C24.4177 131.047 26.6864 132.664 28.8474 134.383C30.8108 136.369 32.6487 138.475 34.3504 140.689C35.389 142.663 36.8443 144.388 38.6156 145.745C40.7742 147.111 43.5221 146.555 45.89 147.326C46.0195 147.377 46.1637 147.376 46.2922 147.323C46.4207 147.269 46.5233 147.168 46.5785 147.04C46.6337 146.912 46.637 146.768 46.5877 146.638C46.5385 146.508 46.4406 146.402 46.3147 146.343C43.4518 145.38 40.8352 143.8 38.6495 141.716C37.5572 140.256 36.3559 138.88 35.0558 137.602C30.9117 134.122 26.6223 130.903 22.3063 127.622C17.9185 124.568 13.9874 120.906 10.6312 116.745C9.16953 114.778 7.80831 112.721 6.43256 110.696C4.56488 108.624 3.19176 106.155 2.41664 103.476C2.12383 100.521 4.38044 98.3985 5.74408 96.0173C7.03029 93.7704 8.05877 91.3165 9.14533 88.9692C11.5302 83.8207 13.1649 78.3141 15.3332 73.0483C17.2555 67.8671 19.9686 63.0149 23.3759 58.664C26.8401 54.6711 32.6649 55.0414 37.5327 54.2307C39.7336 55.777 41.7422 57.9973 43.5656 59.5546C47.4376 62.8784 50.8255 67.0431 47.6094 72.1989C46.0108 75.6151 44.0826 78.8672 41.8523 81.9089C40.2813 83.4074 38.5342 84.7096 36.6494 85.7869C35.1261 87.0775 33.4313 88.1509 31.6134 88.9764L30.4894 86.7525C29.9306 84.783 29.0829 82.9073 27.9738 81.1866L29.0628 79.8459C30.6358 78.0612 31.9486 76.0248 33.5772 74.2933L34.1822 73.6883C35.9307 74.885 38.8709 74.0671 40.5624 75.4779L40.8746 75.2565C40.6923 74.6115 40.4001 74.0028 40.0107 73.4572C39.4729 72.9227 38.8686 72.4595 38.2127 72.0791L36.7752 71.3228C37.3037 70.7717 37.7397 70.1388 38.0663 69.4486L37.8751 69.255C35.5741 69.7797 33.3909 70.7279 31.4368 72.0512C29.635 73.8402 28.1044 75.8828 26.8933 78.1144C22.7022 84.3986 18.8861 90.9249 15.4651 97.6592L15.43 97.9097L15.2642 98.6236C16.8631 103.721 19.5513 108.411 23.1424 112.367C24.944 114.928 26.8546 117.421 28.5171 120.078C29.7783 122.71 31.4923 125.101 33.5809 127.14L34.0818 126.666C32.5972 124.393 31.4586 121.902 30.078 119.565C28.5885 117.041 26.828 114.685 25.3046 112.184C22.0431 107.87 19.3701 103.141 17.3563 98.1214L16.8178 97.5165C19.7913 93.7366 22.5047 89.7591 24.9392 85.6115C25.6182 87.9575 26.6812 90.1748 28.0851 92.1732C30.3018 95.5261 33.2663 98.4155 35.6959 101.627C38.3817 104.726 40.1566 108.509 40.8238 112.555C40.9088 118.199 39.7643 123.794 37.4697 128.951C37.3977 129.13 37.3919 129.329 37.4534 129.512C37.5149 129.695 37.6396 129.851 37.8051 129.95C37.9707 130.05 38.1664 130.087 38.357 130.056C38.5476 130.024 38.7208 129.926 38.8455 129.778C41.512 125.272 42.9621 120.151 43.0538 114.916C43.2265 113.141 43.1618 111.35 42.8614 109.592C44.2212 108.113 45.7714 106.821 47.4714 105.75C50.1818 104.096 53.0848 102.779 56.1155 101.831C59.6848 100.741 63.4418 100.404 67.1481 100.843C70.4675 101.582 73.6957 102.684 76.7747 104.128L77.0627 103.459Z" fill="black"/>
<path d="M23.7733 239.973C24.7157 233.512 26.4422 227.191 28.9145 221.149L28.468 220.933C25.3063 226.024 22.7666 231.476 20.9032 237.171C19.8076 242.811 19.8578 248.613 21.0508 254.232C23.5434 267.236 23.1453 280.346 24.3722 293.466C24.44 294.192 25.5568 294.327 25.679 293.559C27.388 281.602 27.2137 269.451 25.1624 257.547C23.928 251.776 23.461 245.866 23.7733 239.973V239.973Z" fill="black"/>
<path d="M48.5519 222.837L48.1574 222.809C47.2769 225.534 45.9394 228.089 44.202 230.366C43.2068 232.425 42.6309 234.661 42.508 236.944C41.6102 242.815 40.4511 248.659 39.8461 254.57C39.2205 260.665 38.8866 266.784 38.3009 272.882C37.123 278.319 36.811 283.908 37.3765 289.443C37.5544 290.186 38.5115 289.943 38.7002 289.367C39.4651 286.128 39.8556 282.812 39.8642 279.485L40.5467 270.855C41.0173 264.946 41.4203 259.035 41.9611 253.13C42.1177 247.167 43.2575 241.271 45.3345 235.679C47.6539 231.811 48.7736 227.342 48.5519 222.837V222.837Z" fill="black"/>
<path d="M53.1247 317.15C50.2384 317.639 47.2716 317.147 44.6972 315.754C41.1125 314.397 37.6557 312.724 34.3676 310.754C31.3096 309.63 28.3121 308.347 25.3871 306.912C22.6126 304.941 23.7718 299.482 23.8831 296.461L23.3398 296.35C22.0536 299.587 19.9192 303.422 22.2508 306.715C23.1768 307.882 24.4057 308.771 25.8033 309.286C27.8096 310.354 29.724 311.586 31.5265 312.97C35.2775 316.027 39.7193 318.12 44.4648 319.068C47.514 319.522 50.6293 319.073 53.426 317.776L53.1247 317.15Z" fill="black"/>
<path d="M60.3723 309.941C60.3639 309.833 60.3173 309.732 60.2407 309.656C60.1642 309.58 60.0629 309.534 59.9554 309.527C59.8478 309.519 59.741 309.55 59.6545 309.615C59.5681 309.679 59.5076 309.773 59.4842 309.878C59.0744 311.125 58.5478 312.331 57.9112 313.479C57.3585 314.61 56.6263 315.645 55.7429 316.542L56.0454 316.896C57.4892 316.39 58.7902 315.545 59.8387 314.431C60.2532 313.768 60.5159 313.022 60.6082 312.246C60.7004 311.469 60.6199 310.682 60.3723 309.941V309.941Z" fill="black"/>
<path d="M43.321 294.487C42.7091 293.53 41.7717 292.827 40.6819 292.508C39.5921 292.189 38.4236 292.274 37.3921 292.749C33.6766 294.489 29.7757 295.801 25.7642 296.66L25.5525 297.265C26.4692 298.243 27.6774 298.9 28.9972 299.137C30.317 299.373 31.678 299.178 32.8777 298.579C35.7817 297.408 39.3584 291.743 42.641 295.061L43.321 294.487Z" fill="black"/>
<path d="M58.2611 309.089C53.0153 306.083 48.1677 302.43 43.8321 298.216L43.5756 298.197C41.7267 300.268 45.7669 303.238 47.1232 304.237C50.0915 307.172 53.8665 309.156 57.9671 309.937L58.2611 309.089Z" fill="black"/>
<path d="M55.2439 188.238L54.5022 191.447C56.7547 198.841 58.1513 206.47 58.6645 214.183C58.6984 214.925 59.7535 214.762 59.8745 214.137C61.044 203.867 59.642 193.468 55.7945 183.875C55.6735 185.335 55.4992 186.792 55.2439 188.238Z" fill="black"/>
<path d="M55.5671 236.828C55.8043 230.304 56.8359 223.834 58.6392 217.559L58.1709 217.389C55.5774 222.794 53.6417 228.49 52.4054 234.356C51.9278 240.079 52.6064 245.84 54.4006 251.296C58.2883 263.952 59.3132 277.029 61.9533 289.938C62.0985 290.647 63.225 290.664 63.2625 289.888C63.6656 277.816 62.1754 265.755 58.8461 254.144C56.9962 248.542 55.8936 242.719 55.5671 236.828V236.828Z" fill="black"/>
<path d="M78.3297 217.108L77.9341 217.123C77.3541 219.927 76.3014 222.612 74.8208 225.064C74.0557 227.218 73.7267 229.503 73.8528 231.786C73.5963 237.715 73.0772 243.655 73.1147 249.597C73.1534 255.723 73.485 261.843 73.5624 267.968C72.9804 273.501 73.2756 279.091 74.4372 284.532C74.6938 285.252 75.6206 284.906 75.7452 284.313C76.1519 281.01 76.1783 277.672 75.8239 274.364L75.571 265.713C75.398 259.784 75.1584 253.867 75.0567 247.94C74.5658 241.994 75.0597 236.009 76.5184 230.224C78.4068 226.128 79.0372 221.563 78.3297 217.108V217.108Z" fill="black"/>
<path d="M93.0813 310.373C90.265 311.172 87.2624 311.005 84.5521 309.899C80.8417 308.938 77.2242 307.65 73.7422 306.048C70.5797 305.262 67.4602 304.311 64.3963 303.201C61.4246 301.542 61.986 295.99 61.7682 292.975L61.2165 292.924C60.2884 296.28 58.5823 300.324 61.2552 303.345C62.302 304.405 63.6201 305.156 65.0654 305.517C67.1755 306.361 69.2121 307.378 71.154 308.558C75.2142 311.19 79.8567 312.79 84.6767 313.217C87.7568 313.338 90.8048 312.554 93.4443 310.962L93.0813 310.373Z" fill="black"/>
<path d="M99.5114 302.417C99.4912 302.312 99.4337 302.217 99.3495 302.15C99.2652 302.083 99.1598 302.048 99.0522 302.052C98.9446 302.056 98.8421 302.099 98.7632 302.172C98.6843 302.245 98.6342 302.344 98.6221 302.451C98.3491 303.736 97.9553 304.992 97.446 306.202C97.0192 307.387 96.4034 308.494 95.6226 309.482L95.965 309.803C97.3472 309.145 98.5508 308.164 99.4739 306.943C99.8137 306.238 99.9932 305.467 99.9997 304.684C100.006 303.902 99.8395 303.128 99.5114 302.417V302.417Z" fill="black"/>
<path d="M80.8965 288.889C80.1852 288.005 79.1783 287.408 78.0613 287.208C76.9444 287.007 75.7927 287.218 74.8188 287.8C71.3148 289.931 67.5803 291.658 63.6869 292.947L63.5417 293.575C64.5591 294.449 65.8312 294.971 67.1689 295.063C68.5066 295.155 69.8384 294.814 70.9662 294.088C73.7261 292.61 76.6676 286.586 80.2915 289.534L80.8965 288.889Z" fill="black"/>
<path d="M97.3419 301.8C91.801 299.38 86.5859 296.274 81.819 292.554L81.5613 292.563C79.9472 294.822 84.285 297.336 85.7418 298.183C89.0104 300.779 92.9779 302.343 97.1386 302.675L97.3419 301.8Z" fill="black"/>
<path d="M80.0957 131.45C79.3116 130.689 77.5813 130.788 76.5625 130.69L75.4058 130.742L75.4397 128.617C76.3806 121.959 76.8488 115.242 76.8408 108.517L76.2213 108.585C75.8205 112.303 75.0863 115.977 74.0276 119.563C73.4251 123.423 73.0418 127.314 72.8793 131.218C72.5826 134.798 72.6719 138.4 73.1455 141.961C71.2339 142.717 69.2134 143.161 67.161 143.276C64.6206 143.671 62.0323 143.64 59.5018 143.187L59.3469 143.742C61.8431 144.889 70.6264 146.738 73.569 144.135C73.9486 145.759 74.4797 147.344 75.1553 148.869L75.8535 148.601C75.3107 145.209 75.1577 141.765 75.3973 138.338C75.3683 137.025 75.3646 135.709 75.3707 134.393L75.7809 133.999C76.3217 133.169 76.5238 132.677 77.5789 132.689C78.4259 132.699 79.5149 132.924 80.1707 132.241L80.0957 131.45Z" fill="black"/>
<path d="M71.7211 109.743C68.5573 117.492 66.8267 125.752 66.6138 134.119C66.6585 135.36 68.3235 135.157 68.6042 134.157C70.7979 126.31 70.5571 117.879 72.222 109.886L71.7211 109.743Z" fill="black"/>
<path d="M57.7659 145.591L56.8996 142.223L56.4325 140.711C55.427 139.001 54.0125 137.507 52.8594 135.901L52.3162 136.195C53.0276 137.93 53.6701 139.704 54.4288 141.422L55.3121 142.848C56.0974 143.718 56.6808 144.751 57.0206 145.873C57.19 146.367 57.9099 146.077 57.7659 145.591Z" fill="black"/>
<path d="M89.9227 109.723C89.4645 106.59 89.0882 103.444 88.7938 100.284C88.5545 95.6792 87.8091 91.1143 86.5711 86.6721C86.7598 85.2336 86.7598 83.7765 86.5711 82.338C85.9078 79.3871 84.5807 76.6262 82.6906 74.265C80.8005 71.9038 78.3972 70.0045 75.6631 68.7112L75.4465 69.0742C77.5617 71.0364 79.2439 73.4185 80.3857 76.0681C81.5275 78.7177 82.1036 81.5765 82.0772 84.4615C81.7853 87.4442 80.9469 90.3477 79.604 93.0269C78.3018 95.0486 77.2839 97.2399 76.5791 99.539C76.4581 100.277 77.547 100.836 77.9899 100.155C79.9259 97.1747 83.165 95.4638 84.8868 92.1884L85.2292 91.4721C85.62 93.6888 85.8717 95.8885 86.0593 98.156C86.3282 103.19 86.988 108.195 88.0327 113.127C89.0027 115.738 89.1489 118.584 88.4514 121.281C87.6286 123.943 86.7744 126.581 85.7652 129.175C84.45 132.556 82.8141 139.151 79.2314 140.74C79.0012 140.849 78.8198 141.04 78.7228 141.275C78.6257 141.51 78.62 141.773 78.7067 142.013C78.7934 142.252 78.9663 142.451 79.1916 142.569C79.4168 142.688 79.6782 142.718 79.9247 142.654C83.816 141.547 85.2159 137.253 86.628 133.895C89.2438 129.035 90.9129 123.721 91.5465 118.238C91.196 115.367 90.6536 112.522 89.9227 109.723V109.723Z" fill="black"/>
<path d="M56.2696 3.78988C48.0865 -2.6823 38.0533 4.74213 34.8905 13.0172C32.9477 18.5464 32.0643 24.3922 32.2866 30.2485C32.3338 36.0903 34.2092 45.199 29.3633 49.7993L29.8303 50.4455C31.4536 49.3035 32.7619 47.7697 33.6337 45.9866C34.5055 44.2035 34.9124 42.229 34.8167 40.2466C35.0502 34.5718 34.4851 28.8909 35.1482 23.2258C35.3338 20.2007 36.122 17.2432 37.4666 14.5271C38.8112 11.8109 40.685 9.3908 42.978 7.40892C45.0092 5.907 47.3862 4.94115 49.8894 4.60057C51.5833 4.31744 54.4873 3.33372 56.1208 4.03793L56.2696 3.78988Z" fill="black"/>
<path d="M70.1145 32.0663C67.6558 35.3611 65.894 39.0394 63.2309 42.1599C61.1524 42.275 59.0725 41.9612 57.1205 41.2379C54.5518 40.5748 52.0906 39.5493 49.811 38.1924L49.4214 38.6764C51.7689 40.7412 54.4388 42.4076 57.325 43.6095L57.3129 43.67C56.7782 46.0956 56.989 48.6262 57.9179 50.9299C58.4885 51.7495 59.2427 52.4246 60.1204 52.9012C60.9981 53.3779 61.9749 53.643 62.9732 53.6753L63.0663 53.0558C62.1101 52.8248 61.1971 52.442 60.362 51.9221C59.9389 51.4255 59.6516 50.8278 59.5282 50.1872C59.4048 49.5466 59.4495 48.8849 59.6578 48.2667C60.125 47.0012 60.3487 45.6587 60.3172 44.3101C61.0811 44.4065 61.8566 44.2833 62.5528 43.9548C63.2491 43.6262 63.8373 43.106 64.2485 42.4552C66.9101 39.4631 69.0505 36.0454 70.5803 32.3446L70.1145 32.0663Z" fill="black"/>
<path d="M64.6434 20.6217L62.5695 19.5654C61.9026 19.3449 61.2024 19.2425 60.5004 19.2629C59.0419 19.3956 57.6199 19.7934 56.3042 20.4366V20.5116C57.7133 20.821 59.1552 20.9559 60.5972 20.9133L62.682 21.2074C63.3268 21.1827 63.9688 21.1087 64.6022 20.9859L64.6434 20.6217Z" fill="black"/>
<path d="M62.3559 23.5979C62.0408 23.1534 61.6093 22.8043 61.1088 22.5889C60.6082 22.3735 60.058 22.3002 59.5186 22.377C58.8168 22.4024 57.7532 22.3976 57.297 22.9977L56.9836 23.0824L56.9945 23.7806L57.1155 23.5882L57.6467 24.2573C59.0946 24.7609 60.6601 24.8199 62.1418 24.4267L62.3559 23.5979Z" fill="black"/>
<path d="M65.542 35.3597C64.6006 34.9001 63.5377 34.7509 62.5062 34.9338L59.4921 35.0548L59.3469 35.5521C60.8594 36.5564 63.7452 38.7561 65.4973 37.0924C65.9437 36.6641 66.2135 35.7759 65.542 35.3597Z" fill="black"/>
<path d="M69.7467 23.6915L68.6577 23.7557L67.5591 24.4816L67.8821 25.7787C68.2255 25.9717 68.615 26.0671 69.0086 26.0546L70.0904 25.9336C70.6336 25.8126 71.3475 25.371 71.2471 24.7236C71.1491 24.0412 70.3348 23.7423 69.7467 23.6915Z" fill="black"/>
<path d="M68.0426 21.3475L68.0317 21.8557C68.5004 21.9695 68.9824 22.0187 69.4644 22.0021L70.7953 22.5091L71.1922 22.2877C71.2539 20.8333 68.9283 20.9954 68.0426 21.3475Z" fill="black"/>
<path d="M74.4955 55.437C73.4625 54.6065 72.2653 54.004 70.9828 53.6693C69.7002 53.3346 68.3613 53.2752 67.0542 53.495L66.9683 54.0673C69.2926 55.1563 72.003 55.2446 73.242 57.7941C74.3491 60.0713 73.6885 62.9171 75.4284 64.8579L76.0334 64.7103C76.7537 61.5371 76.2016 58.2079 74.4955 55.437Z" fill="black"/>
<path d="M57.4228 5.14001L57.1904 5.31547C58.5323 8.0234 61.5693 9.03011 64.051 10.4567C67.5574 12.585 70.2585 15.8168 71.7308 19.6453C71.7724 19.7456 71.8455 19.8297 71.939 19.885C72.0325 19.9403 72.1414 19.9638 72.2494 19.9519C72.3574 19.9401 72.4586 19.8935 72.5379 19.8192C72.6171 19.745 72.6702 19.647 72.6891 19.54C74.6032 9.76094 62.5857 9.91338 57.4228 5.14001Z" fill="black"/>
<path d="M80.8462 163.561C80.996 158.943 79.9335 154.367 77.7644 150.288C77.6464 150.13 77.4803 150.013 77.2907 149.957C77.1012 149.9 76.8984 149.906 76.7126 149.974C76.5268 150.042 76.3681 150.168 76.2599 150.334C76.1518 150.5 76.1002 150.696 76.1127 150.893C76.1236 155.854 76.9912 160.78 77.4437 165.711L77.7547 169.773L75.7848 171.2C74.0096 172.315 72.0224 173.048 69.9491 173.355C66.658 173.877 63.2749 173.76 59.9595 174.005L59.9377 174.598C63.9146 174.983 67.9228 174.9 71.8802 174.35C73.9679 174.142 76.0097 173.606 77.9301 172.761L78.2931 180.923C78.5206 185.951 78.7953 190.991 78.8642 196.026C78.9344 201.1 77.8346 206.124 78.0802 211.182L78.5521 211.138C78.6731 205.655 80.488 200.383 80.851 194.899C81.191 189.753 81.2418 184.566 81.3774 179.411C81.532 174.122 81.3546 168.828 80.8462 163.561Z" fill="black"/>
</svg>
