<svg width="100" height="27" viewBox="0 0 100 27" fill="none" xmlns="http://www.w3.org/2000/svg">
<path d="M30.5074 8.43498C29.2183 7.65014 27.6928 7.34768 26.2018 7.58133C25.3739 7.68801 24.5534 7.84585 23.745 8.05394C22.9583 8.17841 22.1831 8.36672 21.427 8.61701L21.482 8.83338C22.2079 8.79646 22.922 8.60926 23.6449 8.52914C24.4421 8.46471 25.2429 8.45694 26.0412 8.50587C27.4731 8.55129 28.8798 8.88397 30.2999 8.92569C30.3592 8.93169 30.4188 8.91853 30.4701 8.88816C30.5213 8.85779 30.5615 8.81179 30.5847 8.75691C30.6079 8.70203 30.6129 8.64116 30.599 8.58322C30.5851 8.52529 30.553 8.47333 30.5074 8.43498V8.43498Z" fill="black"/>
<path d="M7.2302 22.8776C5.99033 23.2716 4.35799 23.6777 3.41904 22.4065C3.09034 21.8508 2.89943 21.2245 2.86225 20.5799C2.75126 19.9143 2.56432 19.2635 2.30509 18.6404C1.46962 17.3177 0.89569 15.8469 0.614405 14.3079C0.637297 12.1697 2.81832 12.221 4.39011 12.0811L4.42334 11.8525C2.89622 11.2267 0.708558 11.1447 0.115581 13.0278C-0.21889 14.9989 0.178311 17.0243 1.23249 18.7231C1.60262 19.6799 1.86107 20.6763 2.00269 21.6924C2.03089 22.0919 2.14104 22.4812 2.32627 22.8363C2.5115 23.1913 2.76786 23.5044 3.07936 23.756C3.87621 24.1775 4.77162 24.3773 5.67206 24.3346C6.05593 24.4088 6.45223 24.3862 6.82516 24.2688C7.19809 24.1514 7.53589 23.9429 7.80804 23.6622C7.87338 23.5747 7.90884 23.4685 7.9092 23.3593C7.90955 23.2501 7.87478 23.1436 7.81002 23.0557C7.74525 22.9678 7.65392 22.903 7.54951 22.8709C7.44511 22.8388 7.33316 22.8412 7.2302 22.8776V22.8776Z" fill="black"/>
<path d="M7.99136 18.9385C8.0604 18.5131 8.32366 18.19 8.32366 17.7533C8.28097 17.2976 8.16045 16.8526 7.96736 16.4377C7.6118 15.5191 6.72196 15.6845 6.02929 15.1823C5.07373 14.4911 5.4101 13.3056 5.07152 12.3352L4.84998 12.3315C4.48075 13.3469 3.94944 14.0905 4.47559 15.1746C4.69553 15.6247 5.02909 16.0097 5.44333 16.2915C5.83513 16.5021 6.26317 16.6369 6.70497 16.6888C6.96639 16.7556 7.60958 16.938 7.53573 17.3766L7.10005 17.7418C6.8064 18.1284 6.64183 18.5975 6.62965 19.0828C6.6837 20.2353 7.13077 21.3346 7.89646 22.1976C7.92282 22.2313 7.95836 22.2566 7.99878 22.2705C8.03921 22.2844 8.0828 22.2864 8.12429 22.2761C8.16579 22.2658 8.20341 22.2437 8.23263 22.2125C8.26185 22.1812 8.28141 22.1422 8.28895 22.1002C8.13451 21.0522 8.03517 19.9968 7.99136 18.9385V18.9385Z" fill="black"/>
<path d="M8.85205 15.9148C8.88233 15.9222 9.17808 15.9237 8.85205 15.9148V15.9148Z" fill="black"/>
<path d="M53.3167 3.77555C50.8411 2.66974 48.0281 2.59008 45.4939 3.55401C44.2798 4.00748 43.1605 4.68255 42.193 5.54488C40.3491 6.081 38.3364 6.28629 36.5143 6.69945C34.0932 7.6466 31.525 8.16257 28.926 8.22399L28.8986 8.38903C29.4699 8.63071 30.0686 8.80194 30.6813 8.89894C31.1712 8.90419 31.6595 8.84106 32.1319 8.71137C33.521 8.38128 34.8517 7.84443 36.2433 7.51138C37.7202 7.15766 39.217 6.89367 40.7013 6.57133L41.1765 6.46057C40.838 6.76186 40.4651 7.02212 40.0655 7.23594C39.2612 7.60802 38.4118 7.87376 37.5389 8.02645C34.1775 8.89265 30.7635 9.53991 27.3183 9.96415C25.4712 10.0652 23.6211 9.82593 21.8604 9.25819C20.4373 8.77466 18.9397 8.54715 17.4371 8.5862C15.5955 8.88072 13.7844 9.3418 12.0261 9.96378C11.3376 9.85875 10.6423 9.80519 9.94588 9.80354C9.52833 9.74577 9.10294 9.79701 8.71106 9.95229C8.31918 10.1076 7.97414 10.3616 7.70948 10.6897C8.61554 10.5675 9.52772 10.496 10.4418 10.4755C9.01612 10.8396 7.64182 11.3812 6.35109 12.0876C6.29879 12.1056 6.25515 12.1426 6.22875 12.1913C6.20235 12.2399 6.1951 12.2966 6.20843 12.3503C6.22177 12.404 6.25472 12.4508 6.3008 12.4814C6.34688 12.5121 6.40276 12.5244 6.45743 12.5159C9.80101 11.8449 13.1032 10.9819 16.3475 9.93129C19.651 9.21166 22.6148 10.9507 25.8817 11.0179C29.2724 10.8566 32.6331 10.3032 35.8966 9.36896C36.861 9.16071 37.862 8.99678 38.8256 8.72946C38.4915 10.2293 38.5332 11.7885 38.9471 13.2684C39.1774 14.2345 39.5376 15.1649 40.0179 16.0342C40.2702 16.5293 40.5676 17.0001 40.9062 17.4406L39.525 17.527C36.0489 17.6043 32.5742 17.3207 29.1567 16.6807C27.5321 16.4201 25.9249 16.0593 24.3106 15.7366C22.5841 15.3872 20.8346 15.1634 19.0757 15.0669C17.0068 14.9776 14.9345 15.0023 12.8683 15.1407C11.5156 15.2414 10.1696 15.4181 8.83673 15.6702C8.70824 15.6923 8.68571 15.9098 8.83304 15.9135H8.8563L9.02909 15.9017C8.94565 16.8476 8.99734 17.8117 8.96152 18.7617C8.90732 19.0842 8.91975 19.4144 8.99804 19.7319C9.07634 20.0494 9.21885 20.3475 9.41678 20.6078C10.0445 21.3659 11.8356 22.4986 12.7631 21.6878L12.7723 21.2484C12.3992 21.0081 11.9773 20.8539 11.5372 20.7969C10.9685 20.62 10.4636 20.2813 10.0843 19.8221C9.78158 19.1915 9.64628 18.4935 9.69149 17.7954C9.63573 17.1596 9.62059 16.5139 9.52201 15.8862C10.6326 15.8422 11.7433 15.7754 12.8572 15.8072L14.0111 15.8367C13.5977 16.5299 13.2931 17.2824 13.1079 18.0679C13.0684 18.4256 13.1061 18.7876 13.2187 19.1294C13.3609 19.5518 14.1728 20.4701 13.6806 20.8907L13.8412 21.1122C14.0769 20.8697 14.2464 20.5708 14.3334 20.2441C14.4204 19.9173 14.4221 19.5737 14.3382 19.2461C14.1668 18.6149 14.2041 17.9452 14.4445 17.3369C14.5747 16.8526 14.6534 16.3559 14.6794 15.8552C15.872 15.8899 18.4274 15.943 19.6115 16.0859C22.9855 16.5264 26.3313 17.161 29.6323 17.9867C32.9205 18.7902 36.3062 19.1222 39.6878 18.9725C41.4834 18.9085 43.2701 18.6891 45.0279 18.3168L47.6679 17.7116C48.4643 17.5022 49.2489 17.2502 50.0184 16.9569C50.0824 16.9301 50.1347 16.8814 50.1659 16.8194C50.1971 16.7575 50.2052 16.6864 50.1886 16.619C50.172 16.5516 50.1319 16.4924 50.0755 16.452C50.0191 16.4116 49.9501 16.3927 49.881 16.3987C47.3529 16.6981 44.813 17.0773 42.2654 17.3217C42.0139 16.7354 41.6008 16.1926 41.3301 15.6277C40.9299 14.7775 40.6345 13.8819 40.4502 12.9604C40.2659 12.0869 40.188 11.1942 40.2184 10.302C40.3072 9.60322 40.3379 8.89829 40.3103 8.19445L40.4178 8.14497C41.6063 7.45776 42.7302 6.66452 43.7759 5.77491C45.1425 4.82156 46.6935 4.16479 48.3291 3.84684C49.9648 3.52889 51.6489 3.5568 53.2731 3.92878L53.3167 3.77555Z" fill="black"/>
<path d="M88.0635 16.3772C87.0976 16.0627 86.6723 14.602 86.2757 13.7845C85.922 12.8719 85.6314 11.9361 85.4062 10.9836L85.2308 10.9566C85.0189 11.2879 84.9088 11.674 84.914 12.0673C83.802 11.7418 82.6369 11.6375 81.4847 11.7604C81.1489 11.7845 80.8159 11.8383 80.4896 11.921C81.1413 11.3286 81.5976 10.552 81.7978 9.69424C82.0053 8.95809 81.9496 8.17258 81.6401 7.47312C81.3307 6.77365 80.787 6.20403 80.1027 5.86241C79.6819 5.62065 79.2326 5.43212 78.7653 5.30119C76.5962 5.00733 74.3882 5.24414 72.3308 5.99127L72.3574 6.10906C74.0095 5.82913 75.6873 5.73119 77.3608 5.817C78.4553 5.85555 79.5195 6.18708 80.4423 6.77699C80.8005 7.22858 81.0351 7.76557 81.123 8.33523C81.2109 8.90489 81.1491 9.48761 80.9437 10.0262C80.4513 11.1699 79.634 12.1439 78.5933 12.8275L78.148 13.1395L78.2288 13.2872C79.3496 12.8595 80.5402 12.6442 81.7398 12.6525C82.8043 12.6041 83.9035 12.7932 84.9661 12.6743C85.1116 13.3713 85.3528 14.0448 85.6828 14.6758C86.1997 15.7281 86.7535 16.728 88.0211 16.6634C88.0532 16.6587 88.083 16.6438 88.106 16.6209C88.129 16.598 88.144 16.5682 88.1488 16.5361C88.1535 16.504 88.1478 16.4712 88.1325 16.4426C88.1171 16.4139 88.0929 16.391 88.0635 16.3772V16.3772Z" fill="black"/>
<path d="M99.9714 7.0629C100.014 5.68395 99.6387 4.32432 98.894 3.16298C98.1493 2.00164 97.0703 1.09304 95.7992 0.556773C94.3969 0.0584795 92.8984 -0.108586 91.4209 0.0686536C89.9972 0.146854 88.5989 0.478708 87.2918 1.04858C86.0091 1.68476 84.8959 3.03982 83.4212 3.14837C82.5351 3.21372 81.5832 3.05864 80.6915 3.04166C79.9075 3.02852 79.1234 3.06181 78.3433 3.14135L78.3636 3.32597C79.2345 3.28649 80.1073 3.32045 80.9725 3.42751C81.605 3.5139 82.2109 3.7288 82.8393 3.8248C83.816 3.93106 84.7966 3.66366 85.5842 3.07637C86.6519 2.2111 87.8913 1.5826 89.2203 1.2325C90.5492 0.882406 91.9374 0.818705 93.2929 1.04562C94.6502 1.09954 95.9486 1.61473 96.9737 2.50613C97.9987 3.39753 98.6891 4.61184 98.9309 5.94858C99.3373 7.35688 99.3574 8.84856 98.9892 10.2673C98.6209 11.6861 97.8778 12.9796 96.8378 14.0125C96.6558 14.1421 96.8238 14.4844 97.0261 14.3762C97.6015 14.0897 98.1128 13.6894 98.5289 13.1995C98.945 12.7096 99.2572 12.1403 99.4468 11.5261C99.8967 10.0837 100.075 8.5703 99.9714 7.0629V7.0629Z" fill="black"/>
<path d="M90.7506 8.22707C89.0229 8.08224 87.3205 7.71911 85.684 7.14635C84.2581 6.22641 82.7479 5.44408 81.1739 4.80989C81.0137 4.76854 80.9657 4.98453 81.0591 5.07573C81.6181 5.5794 82.2384 6.0106 82.9052 6.35916C83.6437 6.79005 84.25 7.31914 84.9459 7.79914C85.5283 8.18497 86.1583 8.49364 86.8201 8.71741L86.661 9.11432C86.6257 9.3088 86.659 9.5095 86.7552 9.6822L87.0749 9.79628C87.1945 9.63124 87.0889 9.40639 87.1643 9.21734L87.4264 8.91642C89.2154 9.22859 90.9693 9.71661 92.6624 10.3734C94.0027 11.1488 95.8769 12.0836 96.1365 13.7703L96.358 13.7736C96.5511 10.76 93.3894 8.6982 90.7506 8.22707Z" fill="black"/>
<path d="M93.4611 14.548C93.2266 14.3165 92.8803 14.277 92.6145 14.0869L92.2762 13.8088L91.8162 13.526L91.7837 13.5474C91.7924 13.7504 91.8305 13.951 91.8967 14.143L92.2766 14.572C92.4401 14.6842 92.6254 14.7606 92.8204 14.7961C93.0154 14.8317 93.2158 14.8257 93.4083 14.7784L93.4611 14.548Z" fill="black"/>
<path d="M94.4507 14.0033C94.1561 13.6579 93.7661 13.4071 93.3297 13.2822L92.6736 13.1323C92.4727 13.0603 92.2631 13.0153 92.0503 12.9987L92.0452 13.0167C92.2667 13.2383 92.5621 13.3623 92.7984 13.568C93.0219 13.7558 93.262 13.9229 93.5158 14.0672C93.7167 14.1868 94.2173 14.6524 94.4429 14.3445L94.4507 14.0033Z" fill="black"/>
<path d="M90.5975 15.7935C90.4193 15.6151 90.2009 15.4819 89.9606 15.4051L89.6456 15.2438L89.3525 15.0359L89.2417 15.1164L89.3868 15.4431L89.612 15.7887C89.6909 15.9112 89.7941 16.0161 89.9154 16.0968C90.0366 16.1775 90.1731 16.2324 90.3165 16.258L90.5894 16.1498L90.63 16.0819L90.5975 15.7935Z" fill="black"/>
<path d="M96.0347 8.92682C95.7831 8.07657 95.2868 7.31921 94.6076 6.74916C93.9284 6.17911 93.0965 5.82159 92.2155 5.72119C89.5729 5.11677 86.7716 5.63738 84.1372 4.85425L84.0674 5.01745C84.9951 5.52181 85.9752 5.9232 86.9902 6.21448C88.0906 6.43683 89.2109 6.54632 90.3335 6.54124C92.3358 6.61878 94.8783 6.90862 95.8509 8.97223L96.0347 8.92682Z" fill="black"/>
<path d="M93.0185 15.9954C92.917 16.0209 92.8112 16.0242 92.7083 16.0051C92.6054 15.9859 92.5078 15.9449 92.4222 15.8846L92.0312 15.5482C91.9406 15.4703 91.8311 15.4175 91.7137 15.3951C91.5964 15.3726 91.4751 15.3814 91.3622 15.4205L91.333 15.4866C91.382 15.6726 91.4785 15.8428 91.613 15.9805C91.7475 16.1181 91.9154 16.2185 92.1003 16.2719C92.2648 16.313 92.4365 16.3167 92.6027 16.2826C92.7688 16.2484 92.9252 16.1774 93.0603 16.0747L93.0185 15.9954Z" fill="black"/>
<path d="M83.8104 20.6657C82.7021 19.869 81.4489 19.2964 80.1211 18.9802C78.8424 18.5629 77.5268 18.2684 76.1922 18.1007L76.1438 18.2768C77.404 18.8307 78.7121 19.1999 80.0055 19.6636C81.1962 20.1851 82.4129 20.6448 83.6509 21.0409C83.868 21.0944 83.957 20.7901 83.8104 20.6657Z" fill="black"/>
<path d="M82.8234 20.9899C81.5467 21.07 80.2665 21.0813 78.9886 21.0238L78.9653 21.1088C79.5549 21.4598 80.2237 21.6561 80.9094 21.6793C81.5952 21.7025 82.2757 21.5518 82.8876 21.2413L82.8234 20.9899Z" fill="black"/>
<path d="M78.4119 21.9551C78.1468 21.0782 77.378 20.9213 76.5931 20.6219C75.6494 20.3104 74.7282 19.9349 73.8357 19.4979L73.7009 19.6297C74.5575 21.3854 76.8763 20.9298 78.1054 22.1833C78.2572 22.3376 78.4614 22.1194 78.4119 21.9551Z" fill="black"/>
<path d="M67.1881 25.8326C66.3778 25.7158 65.5863 25.4932 64.8339 25.1706C64.2951 25.0566 63.748 24.9865 63.1979 24.9609C62.5927 24.9239 61.9879 24.9021 61.3887 24.8132C60.8686 24.6541 60.3248 24.5871 59.7818 24.6153L59.7017 24.7629C60.1617 25.8496 62.16 25.7488 63.1152 25.8149C63.9272 25.8551 64.7311 25.9959 65.5085 26.2339C66.0861 26.4684 66.7309 26.4762 67.314 26.2557C67.5662 26.1575 67.4225 25.8204 67.1881 25.8326Z" fill="black"/>
<path d="M70.1872 24.2324C69.0486 23.4795 67.774 22.9564 66.4348 22.6923C65.1407 22.3256 63.8146 22.0831 62.4745 21.9679L62.4331 22.1459C63.714 22.6499 65.0354 22.9667 66.3469 23.3806C67.557 23.855 68.7907 24.2668 70.0432 24.6141C70.2614 24.6584 70.3386 24.3513 70.1872 24.2324Z" fill="black"/>
<path d="M69.5211 24.9711C68.2442 24.8874 66.9727 24.7349 65.7122 24.5144L65.6782 24.5956C66.2183 25.0191 66.8567 25.299 67.534 25.4094C68.2113 25.5198 68.9056 25.4571 69.5521 25.227L69.5211 24.9711Z" fill="black"/>
<path d="M79.1693 1.8058C77.9736 1.18669 76.6767 0.786543 75.34 0.62427C74.1354 0.302486 72.8682 0.29664 71.6607 0.607289C71.1388 0.892576 70.7345 1.353 70.519 1.90733C70.1588 2.86122 70.0026 3.88006 70.0605 4.89807L69.6023 4.9516C68.3428 5.11391 67.0707 5.15533 65.8033 5.07529C65.1579 5.02064 64.5394 4.87886 63.9151 4.82901L63.0023 4.58237C61.6691 4.25487 60.3195 3.91777 58.9693 3.66633C58.3577 3.51303 57.7219 3.48229 57.0984 3.57587C56.5542 3.69623 56.4286 3.95949 56.1314 4.3542L56.0915 4.49265L55.7703 5.19935C55.2721 5.33328 54.7646 5.4298 54.252 5.48809C53.7509 5.60602 53.2744 5.81137 52.8446 6.09472C52.0108 6.69919 51.323 7.48265 50.8315 8.38762C50.2379 9.4347 49.9031 10.6085 49.8551 11.8112C49.8071 13.0139 50.0474 14.2107 50.5557 15.3018L50.7175 15.2648C50.4525 12.9691 50.9259 10.6487 52.0688 8.64017C52.5214 7.86077 53.1364 7.18794 53.8721 6.6674C54.4123 6.36837 54.9692 6.10037 55.5399 5.8647C54.9994 8.25971 55.0769 10.7528 55.7651 13.1097C56.0155 14.156 56.319 15.1877 56.6214 16.2189C55.0194 15.9472 53.3801 15.9866 51.793 16.3348L51.7889 16.4478C53.4368 16.8137 55.1603 16.6446 56.83 16.9278L57.1697 18.1093C57.6641 19.8838 58.3283 21.5664 58.9135 23.3106L59.1273 23.2327C58.3202 20.012 57.3011 16.8451 56.5025 13.6251C56.0874 11.939 55.9247 10.2008 56.0195 8.467C56.0158 7.68612 56.0824 6.90649 56.2185 6.13755C56.4136 5.64848 56.5486 5.13756 56.6206 4.61597C57.0277 4.56584 57.4375 4.54118 57.8476 4.54213C58.4698 4.51295 59.0932 4.56608 59.7015 4.70016C60.9782 4.95861 62.282 5.24587 63.5351 5.59664C65.2471 6.11014 66.9225 6.73851 68.55 7.47748C69.1712 7.77154 69.8232 7.99568 70.4939 8.14578C71.4021 8.19819 72.3017 8.35062 73.1764 8.6003C73.2108 8.61321 73.2488 8.61255 73.2828 8.59845C73.3167 8.58435 73.344 8.55786 73.3591 8.52436C73.3743 8.49086 73.3761 8.45286 73.3642 8.41807C73.3524 8.38329 73.3277 8.35431 73.2953 8.33703C71.6535 7.6057 69.974 6.96233 68.2638 6.40967L67.3618 6.04044C68.0295 6.06122 68.6979 6.04693 69.3641 5.99762C71.9487 5.82408 74.3749 4.81129 76.9373 4.59455C77.1371 4.57794 77.1622 4.24195 76.9502 4.23271C74.7171 4.25009 72.4896 4.46147 70.2931 4.86446C70.4884 4.03592 70.8081 3.23064 70.9699 2.39286C71.0341 2.06056 71.0537 1.59607 71.3446 1.47238C71.703 1.3932 72.069 1.35383 72.4361 1.35497C73.5319 1.22914 74.6397 1.25049 75.7299 1.41847C76.8576 1.61342 77.8995 2.08825 79.009 2.33268C79.3432 2.40578 79.4167 1.95681 79.1693 1.8058Z" fill="black"/>
<path d="M61.3325 13.3892C61.2048 12.3906 60.9723 11.4082 60.6387 10.4583C61.1159 11.0136 61.6803 11.4875 62.3099 11.8613C64.1143 12.9077 66.0896 13.6026 67.9121 14.6058C69.1003 15.5293 70.501 16.1403 71.9862 16.3829C73.5993 16.4222 75.1748 15.8918 76.4357 14.8849C76.4771 14.8561 76.5053 14.812 76.5142 14.7623C76.523 14.7127 76.5118 14.6616 76.483 14.6202C76.4687 14.5997 76.4505 14.5822 76.4295 14.5688C76.4084 14.5553 76.385 14.5461 76.3604 14.5417C76.3107 14.5329 76.2596 14.5441 76.2182 14.5729C75.4467 15.0186 74.5932 15.3039 73.7088 15.4118C72.8243 15.5197 71.9272 15.4478 71.0712 15.2006C69.7634 14.6959 68.5863 13.7905 67.3125 13.1872C64.6593 12.0868 62.1554 10.6562 59.86 8.9293C59.5199 8.42344 59.0802 7.99225 58.5677 7.66211L58.4939 7.7127C58.7159 8.22972 58.9879 8.72376 59.3062 9.18776C59.6076 9.70741 59.8274 10.2703 59.9579 10.8567C60.2337 12.0686 60.4459 13.2941 60.5937 14.5282C60.4781 16.8034 60.8407 19.0775 61.6582 21.2038C61.7446 21.3549 62.0145 21.2533 61.9757 21.0875C61.58 18.5398 61.3651 15.9673 61.3325 13.3892V13.3892Z" fill="black"/>
<path d="M75.9727 16.3545C74.4443 17.3546 72.7357 18.0472 70.9424 18.3938C69.5423 18.4733 68.1479 18.1585 66.9178 17.4851L66.8665 17.4449C66.5018 17.1277 66.1895 16.7548 65.9412 16.3401C65.7152 15.8631 65.5162 15.3737 65.3453 14.8743L65.2116 14.8691C65.0981 15.1482 65.0462 15.4484 65.0596 15.7493C65.0729 16.0502 65.1511 16.3447 65.2888 16.6126C64.3793 16.1115 63.3287 15.9281 62.3032 16.0913L62.2888 16.178C63.0819 16.5454 63.9917 16.6193 64.808 16.9508C65.1516 17.0968 65.4823 17.2712 65.7968 17.4722L66.186 17.9153C66.7459 18.4476 67.432 18.8288 68.1798 19.0229C68.8575 19.3114 69.5849 19.4652 70.3213 19.476C71.4757 19.5205 72.6246 19.2945 73.6761 18.8162C74.7539 18.3052 75.0958 17.1451 76.0979 16.5942L75.9727 16.3545Z" fill="black"/>
</svg>
