<svg width="100" height="108" viewBox="0 0 100 108" fill="none" xmlns="http://www.w3.org/2000/svg">
<path d="M32.0799 36.2083C29.4707 36.3056 25.391 36.4246 23.4867 34.1784C22.0294 32.4597 22.9597 29.648 23.8809 27.3729L24.0227 27.2443C24.5453 26.6004 24.9215 25.8504 25.1251 25.0465C25.3287 24.2426 25.3549 23.404 25.2017 22.5889C25.8513 23.042 26.601 23.3307 27.3867 23.4302C27.6241 23.4849 27.6823 23.1514 27.5015 23.042C26.7919 22.5932 26.1605 22.0316 25.632 21.3793L24.8814 20.3859C24.5533 19.9977 24.1146 19.6955 23.8238 19.285L23.5954 19.4479C23.8797 19.9887 23.8959 20.6528 24.1856 21.2026L24.5629 21.845C24.2679 23.1548 23.7775 24.4128 23.1081 25.5767C22.425 26.2984 21.5807 26.8481 20.6443 27.1806C18.8668 27.9786 16.8663 28.0441 15.1386 28.9329C13.536 29.7574 17.6583 28.7226 18.8764 28.6925C19.8648 28.7043 20.8517 28.6122 21.8209 28.4179C21.5174 29.157 21.3067 29.9309 21.1936 30.7218C20.247 33.2475 19.6143 35.8798 19.3096 38.5597L19.505 38.6198C19.8425 37.9522 20.0927 37.2439 20.2495 36.5124C20.5721 35.5154 20.9509 34.5376 21.3841 33.5834C21.5457 34.0848 21.807 34.5483 22.152 34.9463C23.4788 36.1692 25.1428 36.9647 26.9277 37.2294C28.7126 37.4941 30.5358 37.2158 32.1604 36.4306L32.0799 36.2083Z" fill="black"/>
<path d="M40.6877 27.4084C39.0051 26.8375 36.7318 27.1007 35.4368 25.6915C34.6589 24.4113 34.1999 22.9629 34.0986 21.4682C34.4452 21.0813 34.7216 20.6367 34.9152 20.1546C35.7555 18.1716 36.0343 15.9956 35.7211 13.8647C35.6568 13.5769 35.2608 13.6754 35.2085 13.9134C34.5409 16.9691 33.9465 21.1654 30.9119 22.747L30.9539 22.9387C31.855 22.8109 32.7184 22.4925 33.4868 22.0049C33.3442 23.1968 33.4701 24.4055 33.8552 25.5425C34.0437 26.6913 34.3912 27.8084 34.8876 28.8614C35.4387 30.0306 35.6471 31.332 35.4885 32.6148C35.0914 33.668 34.4966 34.6356 33.7362 35.4656L33.7687 35.5016C34.4501 34.8833 35.3275 34.5305 35.8244 33.7169C36.1087 33.2207 36.2841 32.6696 36.3388 32.1004C36.8014 33.273 37.326 34.4202 37.9102 35.5371L38.1975 35.3845C37.4838 32.7536 36.6211 30.1654 35.6135 27.6325L36.3172 27.9721C38.1392 28.6162 40.3746 28.308 41.9833 29.4503C43.5607 30.5705 43.3973 28.3278 40.6877 27.4084Z" fill="black"/>
<path d="M27.6735 12.9585C27.385 12.7529 27.0538 12.6151 26.7046 12.5554C26.3554 12.4957 25.9972 12.5156 25.6568 12.6136L24.9958 13.0463L24.75 13.2566C24.7614 13.6171 25.4513 13.8106 25.7115 13.8323C26.3884 13.927 27.0771 13.7816 27.6579 13.4212L27.6735 12.9585Z" fill="black"/>
<path d="M33.764 12.9894C33.5769 12.8145 33.3505 12.6871 33.104 12.6179C32.8574 12.5487 32.5978 12.5397 32.347 12.5916L31.6007 12.7508C31.3243 12.8968 31.2485 13.1715 30.9998 13.3517L31.0412 13.4827L31.7323 13.8078C31.9838 13.8385 32.2384 13.8328 32.4882 13.791C32.9368 13.8098 33.3771 13.6669 33.7292 13.3884L33.764 12.9894Z" fill="black"/>
<path d="M27.5258 10.8913C27.0067 10.7059 26.4477 10.6616 25.9059 10.7629C25.3641 10.8643 24.8589 11.1076 24.4419 11.4681L24.4743 11.5583C25.4785 11.372 26.5259 11.6022 27.509 11.3612L27.5258 10.8913Z" fill="black"/>
<path d="M34.6565 11.6546C34.2729 11.1009 33.6927 10.7141 33.034 10.573C32.522 10.5291 31.5816 10.5381 31.2493 10.9864L31.2823 11.1667C31.6681 11.4984 32.3243 11.2087 32.7846 11.2238C33.3975 11.3254 33.9887 11.53 34.5333 11.8289L34.6565 11.6546Z" fill="black"/>
<path d="M31.1753 19.3761C30.5045 19.4683 29.8229 19.4441 29.1604 19.3046C28.4525 19.2319 27.7674 19.5096 27.0607 19.4248L26.9946 19.6484C27.7434 20.0943 28.3876 20.6988 29.319 20.584C30.0639 20.4806 30.76 20.1542 31.3159 19.6478L31.1753 19.3761Z" fill="black"/>
<path d="M33.633 8.13105C32.6291 6.86046 31.2357 5.95491 29.6669 5.55369L27.2632 4.85481C26.1869 4.53031 25.9892 3.95342 25.4532 3.00757L25.2332 3.0286C24.5247 4.55435 25.9345 6.35051 27.2415 6.95264C28.1781 7.34268 29.1709 7.58083 30.1825 7.65812C31.3322 7.58031 32.4842 7.77082 33.5476 8.21459L33.633 8.13105Z" fill="black"/>
<path d="M37.9026 5.27895C37.3439 4.11745 36.5516 3.08365 35.5754 2.24212C34.5991 1.40059 33.4598 0.769419 32.2286 0.388031C30.2786 -0.134173 26.9892 -0.37996 25.4983 1.32006L25.6185 1.55261C26.8564 1.5424 28.0186 1.07668 29.2781 1.15059C30.5161 1.26418 31.7115 1.66078 32.7719 2.30978C35.0209 3.78338 36.6905 5.99016 37.4969 8.5552C38.4338 11.3582 38.7675 14.3276 38.4765 17.2686C38.0065 19.3333 38.0478 21.4815 38.5966 23.5266L38.9151 23.4065C38.7821 21.9213 38.8397 20.4253 39.0864 18.9548C39.2234 17.2812 39.373 15.5896 39.4097 13.9106C39.6296 10.953 39.1117 7.98707 37.9026 5.27895Z" fill="black"/>
<path d="M24.2382 1.76694C20.114 2.81135 19.7114 7.6482 19.4446 11.303C19.1273 15.6411 21.132 22.3642 17.768 25.9247C17.7303 25.975 17.7094 26.0358 17.7081 26.0986C17.7068 26.1615 17.7252 26.2231 17.7607 26.2749C17.7963 26.3267 17.8472 26.3661 17.9063 26.3874C17.9653 26.4088 18.0296 26.4111 18.0901 26.394C21.6013 24.9152 20.218 18.3194 20.3736 15.319C20.4902 13.0511 20.9205 10.7826 21.1614 8.52193C21.233 7.33085 21.4784 6.15665 21.8898 5.03658C22.5045 3.59436 23.4624 3.27526 24.511 2.30056C24.5684 2.25756 24.6087 2.19568 24.6249 2.12583C24.641 2.05598 24.632 1.98267 24.5994 1.91883C24.5667 1.85499 24.5126 1.80474 24.4465 1.77695C24.3804 1.74915 24.3066 1.74561 24.2382 1.76694V1.76694Z" fill="black"/>
<path d="M24.9376 6.24853C21.8891 8.77241 22.654 13.9181 23.1306 17.3723H23.1786C23.3352 15.5058 23.5928 13.6492 23.9502 11.8107C24.3757 10.068 25.104 8.28926 25.3925 6.53877C25.4291 6.30261 25.1365 6.08388 24.9376 6.24853Z" fill="black"/>
<path d="M28.3445 17.6777C28.3445 17.3947 30.22 17.3983 30.3876 17.4277L30.485 17.5834L30.1082 17.8502C29.8678 17.9776 29.7567 18.129 29.4502 18.1308L28.7519 17.9842L28.3445 17.6777Z" fill="black"/>
<path d="M50.4717 50.8704C50.1695 48.5096 49.6563 46.1807 48.9381 43.9116C48.2903 41.4839 48.0668 38.9552 47.2946 36.5611C46.471 34.2647 45.4515 32.0433 44.2473 29.9215L44.0129 30.0459C45.3545 34.5189 46.4241 39.069 47.2159 43.6713C47.9457 45.8879 48.4917 48.1609 48.8486 50.4671C48.9778 51.6089 48.9652 52.7591 48.9976 53.9074C49.0403 55.4001 49.3011 56.9415 49.2344 58.4306C49.2244 58.5008 49.2423 58.5722 49.2841 58.6294C49.326 58.6867 49.3886 58.7254 49.4585 58.7372C49.5285 58.749 49.6003 58.7331 49.6586 58.6928C49.717 58.6524 49.7573 58.5909 49.771 58.5213C50.3933 56.0217 50.6296 53.4415 50.4717 50.8704V50.8704Z" fill="black"/>
<path d="M28.1439 52.1851C28.6613 51.0589 28.9479 49.8487 29.4611 48.7219C29.5891 48.4401 29.1679 48.1469 28.9936 48.4215C27.0388 51.5181 25.5443 54.9716 23.4651 57.969C22.7046 59.0314 21.866 60.0357 20.9562 60.9736C20.1528 61.8257 18.6313 63.5528 17.3351 63.3436L17.2239 63.7198C19.8619 64.9872 22.1701 62.3648 23.6472 60.3775C23.7764 60.2116 27.7016 53.1472 28.1439 52.1851Z" fill="black"/>
<path d="M25.4902 48.3065C24.7283 48.8571 23.9988 49.4512 23.3052 50.0858C22.9771 50.0336 22.6238 50.0744 22.2957 50.0342C21.8424 50.0065 21.3972 49.901 20.9797 49.7223L20.8985 49.8226C21.1303 50.2871 21.5139 50.6583 21.9856 50.8748L22.2807 50.9674L21.1864 51.7979L20.1528 52.6115C20.1214 51.3783 19.989 50.1497 19.7568 48.9381C19.2946 46.1731 19.1571 43.3635 19.347 40.5666L19.1066 40.4921C18.3906 42.7994 18.1534 45.2288 18.4095 47.6311C18.4578 49.0029 18.5876 50.3706 18.7983 51.727C18.8555 52.3725 18.9559 53.0136 19.0988 53.6457L17.3411 55.5494L17.6085 55.8499C19.1246 54.5279 21.0025 53.6824 22.6208 52.4973C23.9528 51.4226 24.9992 50.036 25.6675 48.4603L25.4902 48.3065Z" fill="black"/>
<path d="M45.9169 52.7076C45.2933 52.1624 44.5893 51.7165 43.8299 51.3855C43.7128 50.4565 43.3943 49.6038 43.1869 48.6916C42.988 47.816 42.9135 46.9183 42.7182 46.0415C42.3375 44.0398 41.7469 42.0838 40.9563 40.2059L40.6871 40.266C40.9491 42.0814 41.0477 43.8487 41.4461 45.6635C41.6612 46.6394 41.7567 47.6231 41.931 48.6081C42.0668 49.376 42.3192 50.1104 42.4821 50.8699L40.9058 50.3736L39.3212 49.7985L39.4961 49.7318C40.3374 49.3148 40.5176 48.5149 40.9912 47.7782L40.871 47.6424C40.3722 47.9771 39.8121 48.2601 39.2899 48.5582L38.6187 48.8941C38.2826 48.9793 37.9366 49.0197 37.5899 49.0143C36.3454 48.4019 35.1261 47.7289 33.8702 47.1172L33.7434 47.3251C35.6791 48.7771 37.6992 50.1131 39.7929 51.326C40.5988 51.7571 41.4673 52.0592 42.3667 52.2214C43.5329 52.2606 44.6815 52.5172 45.7535 52.978L45.9169 52.7076Z" fill="black"/>
<path d="M14.8499 67.0686C13.9215 68.8692 13.2659 70.7978 12.9047 72.7912C12.7715 75.1958 12.4859 77.5894 12.0496 79.9578C11.3886 82.3982 10.5545 84.7797 10.013 87.2549C9.49926 89.6039 9.32979 92.0118 8.7511 94.3458C8.55279 95.1462 9.76125 95.4875 10.0827 94.7586C10.9096 92.6187 11.4967 90.3937 11.8332 88.1244C12.3056 85.7586 12.9672 83.433 13.5849 81.1038C13.851 76.4481 14.3802 71.8111 15.1702 67.2152L14.8499 67.0686Z" fill="black"/>
<path d="M30.9976 55.5755C28.7768 56.3475 26.6839 57.4471 24.7882 58.8379C22.2024 61.3199 19.4601 63.6336 16.5784 65.7648L16.6889 65.9829C19.717 64.9205 22.5072 63.2741 24.9012 61.137C26.5335 59.0248 28.6995 57.3861 31.176 56.3897C31.6369 56.2755 31.4483 55.5346 30.9976 55.5755Z" fill="black"/>
<path d="M7.60171 94.9298C7.35775 94.7124 7.06495 94.5572 6.74818 94.4772C6.43141 94.3971 6.10001 94.3947 5.7821 94.4701C5.49728 94.5083 5.22624 94.6159 4.99286 94.7836C4.75948 94.9513 4.57093 95.1738 4.44384 95.4315C4.29361 95.9153 4.77676 96.5643 5.28995 96.348L5.43237 96.1178L5.29595 95.8011L5.36987 95.7476C5.61711 95.6123 5.89002 95.5305 6.17091 95.5073C6.30426 95.5076 6.43601 95.5362 6.55743 95.5914C6.67885 95.6465 6.78717 95.7268 6.87519 95.827C7.09393 96.0962 7.06328 96.4748 7.20029 96.7842C7.23121 96.8658 7.28548 96.9365 7.35631 96.9874C7.42714 97.0383 7.5114 97.0672 7.59857 97.0706C7.68574 97.0739 7.77196 97.0515 7.84647 97.0061C7.92099 96.9608 7.98048 96.8945 8.01754 96.8155C8.15589 96.4975 8.19018 96.1438 8.1155 95.8052C8.04081 95.4665 7.86098 95.1601 7.60171 94.9298V94.9298Z" fill="black"/>
<path d="M3.87825 97.4302C2.76849 98.5656 1.71981 99.7591 0.736613 101.006C0.0124894 102.318 -0.186805 103.856 0.178957 105.31C0.380267 106.076 1.51842 105.761 1.46614 105.014C1.39021 103.514 1.85388 102.038 2.77315 100.851C3.38708 99.8211 3.83181 98.6998 4.09037 97.5293L3.87825 97.4302Z" fill="black"/>
<path d="M10.8786 97.6724L10.461 97.8286C10.5972 98.9065 10.4806 100.001 10.1203 101.026C9.56501 101.885 8.95753 102.709 8.30125 103.494C7.51399 104.539 6.45293 105.346 5.23548 105.825C4.01804 106.305 2.69169 106.438 1.40324 106.21L1.32031 106.492C2.44823 107.194 3.78849 107.474 5.10313 107.282C5.85285 107.103 6.55657 106.768 7.16868 106.299C7.78079 105.831 8.28763 105.239 8.65639 104.562C9.52894 103.356 11.2061 102.86 11.5042 101.263C11.7451 100.03 11.5224 98.7515 10.8786 97.6724V97.6724Z" fill="black"/>
<path d="M11.2496 67.8201C11.1383 67.7292 11.0007 67.6768 10.8572 67.6707C10.7137 67.6645 10.572 67.7049 10.4534 67.7858L10.2238 67.9871L10.2034 68.0063L10.2226 67.9901L10.2004 68.0094L10.1896 68.0184L9.96302 68.2143L9.42218 68.8753C9.22508 69.2869 9.67878 69.8464 10.1121 69.6367C10.6443 69.438 11.1033 69.0816 11.4275 68.6151C11.4866 68.481 11.5013 68.3314 11.4693 68.1883C11.4373 68.0453 11.3603 67.9162 11.2496 67.8201V67.8201Z" fill="black"/>
<path d="M57.4866 75.9407C55.3164 74.5235 53.2227 72.9926 51.2141 71.3544C49.1361 69.5655 47.233 67.5938 45.1298 65.8205C43.1187 64.1235 40.9436 62.6311 38.6368 61.3652L39.0316 60.8797L39.8368 60.1297L40.6721 59.5997L41.3421 59.3413C43.5415 61.0239 47.2216 63.3026 49.4889 61.3628C49.6691 61.2114 49.5333 60.8941 49.296 60.9812C47.9012 61.4926 45.158 59.6514 44.0078 59.0162L39.296 55.6324C37.7702 54.3621 36.0288 53.5039 34.4826 52.2967C33.5476 51.3352 32.4004 50.6061 31.133 50.1676L31.1258 50.191C32.431 50.8967 33.5553 51.8948 34.4105 53.1073C32.724 52.6095 30.9095 52.7929 29.3567 53.6181L29.4168 53.8976C30.7388 54.2545 32.1269 54.3044 33.4634 54.6145C34.5661 54.8704 35.6333 55.1865 36.7336 55.4215C37.7816 56.3535 39.0688 57.4586 39.8621 58.1341L38.8573 58.881C38.2685 59.4012 37.8615 60.0961 37.6957 60.8641C35.4851 59.733 33.2057 58.7417 30.871 57.8961L30.7947 58.0211C33.2269 59.7473 35.7446 61.3498 38.3381 62.8225C40.6348 64.5562 42.6299 65.6931 44.8485 67.5217C47.0209 69.3125 48.8837 71.4626 51.0903 73.1968C52.7296 74.9264 54.8466 76.1288 57.1717 76.651C57.5124 76.6654 57.8471 76.1907 57.4866 75.9407Z" fill="black"/>
<path d="M64.2326 68.0628C63.3496 67.308 62.512 66.5015 61.7243 65.6477L59.9678 63.3768C58.5791 61.6341 57.2637 61.1083 55.9128 59.3404C54.8478 57.9695 53.688 56.6749 52.4418 55.4663C51.6857 54.6069 50.8698 53.8021 50.0003 53.0577C50.0039 53.6857 49.9726 54.3197 49.9402 54.944C51.8703 56.7873 53.6473 58.7846 55.2536 60.916C57.2458 64.333 60.2919 67.0121 63.9351 68.552C63.9987 68.5765 64.069 68.578 64.1335 68.556C64.1981 68.534 64.2529 68.49 64.2883 68.4318C64.3238 68.3735 64.3376 68.3046 64.3274 68.2372C64.3172 68.1697 64.2837 68.108 64.2326 68.0628V68.0628Z" fill="black"/>
<path d="M93.8656 91.9777C92.5436 89.4863 89.8436 88.3025 87.8666 86.427C85.5506 84.23 83.7803 81.7951 81.492 79.568C79.1469 77.3579 76.6028 75.369 73.8921 73.6267C72.6115 72.7716 71.3586 71.863 70.0317 71.083C68.6003 70.4469 67.2023 69.7381 65.8433 68.9593C65.7594 68.8975 65.6549 68.8704 65.5516 68.8836C65.4483 68.8969 65.354 68.9494 65.2884 69.0303C65.2228 69.1113 65.1909 69.2143 65.1993 69.3182C65.2078 69.422 65.2559 69.5186 65.3337 69.5879C66.3699 70.3236 67.4644 70.9735 68.6063 71.5313C69.9885 72.3678 71.2462 73.4218 72.5442 74.3863C75.2589 76.2936 77.8432 78.38 80.2799 80.6317C82.4991 82.795 84.1925 85.1837 86.4694 87.2869C88.6087 89.2646 91.1783 90.5674 93.38 92.4344C93.6877 92.6946 94.0375 92.2992 93.8656 91.9777Z" fill="black"/>
<path d="M86.6848 91.7345C85.201 90.2472 83.3792 89.1412 81.375 88.5112C78.6925 87.4043 76.1842 86.7619 73.5888 85.423C70.9912 83.9578 68.4801 82.3441 66.0683 80.5898C64.1323 79.2015 61.964 78.1699 59.6654 77.5437L59.5645 77.8844C60.705 78.3896 61.7839 79.0239 62.78 79.7749C63.9576 80.5079 65.0852 81.3184 66.1554 82.2009C68.1927 83.9073 70.3973 85.4034 72.7355 86.6663C77.1764 89.0274 82.0499 89.5285 86.3921 92.0927L86.6848 91.7345Z" fill="black"/>
<path d="M90.2008 93.263L89.9333 93.6968C89.9472 94.0375 90.0621 94.3663 90.2632 94.6415L90.6148 94.5099L90.6653 94.0496C91.5622 93.9499 92.469 93.9833 93.3562 94.1487C93.7997 94.2485 94.0815 94.347 94.2498 94.7587C94.403 95.1343 94.5605 95.5435 95.0616 95.3506L95.4498 94.8699C95.6752 92.4073 91.5949 92.6338 90.2008 93.263Z" fill="black"/>
<path d="M87.6645 93.8505L87.3911 93.9136C87.5568 95.524 87.4643 97.1505 87.1171 98.7318C86.8289 99.1877 86.681 99.7183 86.6917 100.258C86.7024 100.797 86.8712 101.321 87.1771 101.765C87.2283 101.836 87.2994 101.891 87.3813 101.921C87.4633 101.952 87.5525 101.958 87.6377 101.938C87.723 101.918 87.8005 101.874 87.8606 101.81C87.9206 101.746 87.9605 101.666 87.9752 101.58C88.0359 100.878 88.1643 100.184 88.3586 99.507C88.639 99.0293 88.8329 98.5059 88.9313 97.9608C88.9343 96.4941 88.4926 95.061 87.6645 93.8505V93.8505Z" fill="black"/>
<path d="M99.3857 103.421C97.7919 104.12 96.0078 104.255 94.3271 103.804C93.4537 103.604 92.5956 103.343 91.7594 103.022C90.9493 102.777 90.0975 102.7 89.2565 102.796L89.2439 103.164C90.5425 103.224 91.7149 104.658 92.9516 105.061C93.8107 105.327 94.6982 105.49 95.5957 105.547C96.9273 105.651 99.4242 105.672 99.962 104.06C99.9975 103.976 100.009 103.885 99.9936 103.796C99.9788 103.706 99.9386 103.623 99.878 103.556C99.8174 103.489 99.7388 103.441 99.6516 103.417C99.5643 103.393 99.4721 103.394 99.3857 103.421V103.421Z" fill="black"/>
<path d="M96.8799 97.9831C96.3623 97.3982 95.7054 96.9533 94.97 96.6899C94.2347 96.4264 93.4447 96.3528 92.6734 96.476C92.5517 96.4918 92.4395 96.5503 92.3568 96.6411C92.2742 96.7319 92.2265 96.8491 92.2222 96.9718C92.218 97.0945 92.2574 97.2147 92.3336 97.311C92.4097 97.4073 92.5176 97.4734 92.638 97.4976C93.9553 97.6914 95.1909 98.2539 96.2021 99.1201C97.1034 99.8785 98.4615 100.452 99.0198 101.533L99.0967 101.505C98.729 100.134 97.9564 98.9071 96.8799 97.9831V97.9831Z" fill="black"/>
<path d="M66.116 73.3173L65.8564 72.9098C65.6413 72.6604 65.4394 72.3798 65.0752 72.4387C65.0047 72.4498 64.9386 72.4798 64.8839 72.5256C64.8292 72.5714 64.788 72.6313 64.7647 72.6987C64.7414 72.7661 64.7369 72.8387 64.7517 72.9085C64.7665 72.9783 64.8 73.0427 64.8487 73.0949L65.0097 73.5318L65.1539 73.8178L65.4093 74.0714L65.5848 74.1171L66.0409 73.9404L66.1701 73.6544L66.116 73.3173Z" fill="black"/>
<path d="M30.3168 39.7075C28.7485 39.8567 27.2562 40.4537 26.0178 41.4274C24.8448 42.3889 25.4517 44.0919 25.5677 45.3887L25.7353 45.3947C25.7519 44.8318 25.8175 44.2714 25.9312 43.7199C26.0372 43.3746 26.2188 43.0572 26.4628 42.7908C26.7067 42.5244 27.0069 42.3157 27.3416 42.1797L28.9545 41.4424C29.4905 41.2333 30.0614 41.1672 30.5818 40.9178C30.7177 40.8609 30.8293 40.7581 30.8973 40.6273C30.9652 40.4966 30.9852 40.3462 30.9537 40.2022C30.9221 40.0583 30.8412 39.9299 30.7248 39.8396C30.6084 39.7492 30.464 39.7025 30.3168 39.7075Z" fill="black"/>
<path d="M34.9569 42.9876C34.5104 41.8302 33.3609 41.6175 32.4589 40.9835L32.2029 41.2239C32.8495 41.9726 33.7917 43.1348 33.6848 44.1588C33.5539 44.6083 33.5298 45.0821 33.6146 45.5426C33.6993 46.003 33.8904 46.4372 34.1727 46.8107C34.2231 46.8788 34.2962 46.9265 34.3788 46.9452C34.4614 46.9639 34.5479 46.9523 34.6227 46.9126C34.6974 46.8728 34.7555 46.8075 34.7861 46.7286C34.8168 46.6497 34.8181 46.5624 34.7899 46.4826C34.761 45.8224 34.8476 45.1623 35.0459 44.532C35.1498 44.0181 35.1192 43.4861 34.9569 42.9876V42.9876Z" fill="black"/>
<path d="M32.9484 44.1043L32.7123 43.3976L32.1149 42.9108L31.4539 42.7708L30.7532 42.6266L30.6331 42.8982L31.1138 43.3291L31.4593 43.8699L31.8866 44.2629L32.4947 44.5357C32.7657 44.7016 33.0187 44.3591 32.9484 44.1043Z" fill="black"/>
<path d="M32.5376 45.8965C32.0178 45.5606 31.37 45.5155 30.8922 45.1207L30.7065 45.3497C31.0615 45.7009 31.3899 46.0779 31.6891 46.4776L32.1271 47.0305L32.6205 47.537C32.6623 47.5937 32.7197 47.6368 32.7858 47.6612C32.8518 47.6855 32.9235 47.69 32.9921 47.6741C33.0606 47.6582 33.123 47.6226 33.1716 47.5716C33.2201 47.5207 33.2527 47.4567 33.2653 47.3874C33.3234 47.0936 33.2837 46.7887 33.1523 46.5195C33.0209 46.2503 32.805 46.0315 32.5376 45.8965V45.8965Z" fill="black"/>
<path d="M32.4691 48.1175C32.1032 47.6902 31.5867 47.4203 31.0269 47.364C30.7779 47.31 30.5223 47.294 30.2685 47.3165L29.7529 47.5407L29.8563 47.8315C30.1003 47.7317 30.6609 48.2203 30.8334 48.3459C31.1559 48.6357 31.5523 48.8305 31.9788 48.909C32.0758 48.9204 32.1742 48.904 32.2622 48.8615C32.3503 48.8191 32.4244 48.7524 32.4759 48.6693C32.5273 48.5862 32.554 48.4902 32.5528 48.3925C32.5517 48.2947 32.5226 48.1993 32.4691 48.1175Z" fill="black"/>
<path d="M15.7602 61.2128C15.5198 60.1798 15.5408 59.124 15.3107 58.0958C15.0492 56.9246 14.5775 55.8177 14.2747 54.6591C13.6128 51.7438 13.4155 48.7423 13.69 45.7654C13.8252 43.4429 14.1821 41.1167 14.0962 38.7839C13.795 36.2744 13.7078 33.7438 13.8354 31.2195L13.5487 31.1245C12.7959 33.3547 12.5145 35.717 12.7225 38.0616C12.7483 40.8259 12.5614 43.5937 12.5043 46.3592C12.4767 47.6974 12.4857 49.1234 12.5644 50.5656C10.4812 52.6558 8.76838 55.0849 7.49924 57.7491C6.08992 60.9942 5.41128 64.5094 5.51137 68.0459C5.52279 68.5267 6.21505 68.5141 6.30279 68.0748C6.89613 64.5259 7.86734 61.0506 9.19984 57.7082L9.80678 56.5382L12.1504 57.4745C12.7404 57.8049 13.3538 58.0917 13.9856 58.3326C14.3648 59.4013 14.869 60.4213 15.4879 61.3715L15.7602 61.2128ZM12.1546 55.9325C11.5921 55.7381 11.0059 55.6204 10.4119 55.5828C11.1589 54.4747 12.0008 53.4158 12.6954 52.2903C12.8242 53.6538 13.0516 55.0062 13.3757 56.3369L12.1546 55.9325Z" fill="black"/>
<path d="M6.15526 70.4537L5.85479 70.4429C5.54832 72.0996 4.70643 73.6073 4.29901 75.2413C3.94007 76.9134 3.77871 78.6219 3.81826 80.3317C3.74349 81.99 3.75654 83.651 3.85733 85.3079C4.03761 87.1462 4.72025 88.8774 4.92156 90.697C4.948 90.9374 5.335 90.9747 5.35303 90.7127C5.57837 87.3884 5.27671 84.1067 5.30436 80.7716C5.27273 78.9091 5.42164 77.048 5.74903 75.2142C6.19561 73.6694 6.33366 72.0518 6.15526 70.4537V70.4537Z" fill="black"/>
</svg>
