<svg width="100" height="40" viewBox="0 0 100 40" fill="none" xmlns="http://www.w3.org/2000/svg">
<path d="M18.2555 25.603C17.6041 26.5056 17.0701 27.4872 16.6664 28.5245C16.0157 29.2962 15.5182 30.185 15.2007 31.1432L15.3604 31.2797C16.4583 31.0525 17.1492 29.8592 17.6644 28.9546C18.3621 28.0297 18.7134 26.8895 18.6573 25.7324C18.648 25.6908 18.6279 25.6523 18.5992 25.6208C18.5705 25.5893 18.534 25.5659 18.4934 25.5528C18.4528 25.5397 18.4095 25.5375 18.3678 25.5463C18.326 25.5551 18.2873 25.5747 18.2555 25.603V25.603Z" fill="black"/>
<path d="M8.83374 22.8785C8.84574 23.4811 9.00741 24.0713 9.3042 24.5959L9.34933 24.5923C9.56949 24.0308 9.64636 23.4233 9.57298 22.8246C9.5519 22.7383 9.50092 22.6622 9.42908 22.6099C9.35724 22.5576 9.26918 22.5325 9.18056 22.539C9.09193 22.5454 9.00847 22.5831 8.94497 22.6453C8.88148 22.7074 8.84207 22.7901 8.83374 22.8785V22.8785Z" fill="black"/>
<path d="M10.4298 22.3913C10.3702 22.7682 10.3513 23.1503 10.3735 23.5311L10.4594 24.0559L10.5744 24.2668L10.687 24.3615L10.8759 24.3467L11.0301 24.0503C11.0517 23.8688 11.0478 23.6852 11.0185 23.5048C10.9651 23.1171 10.8684 22.7367 10.7301 22.3706C10.7214 22.3358 10.7006 22.3053 10.6716 22.2842C10.6426 22.2632 10.6071 22.253 10.5713 22.2555C10.5355 22.258 10.5018 22.2729 10.4759 22.2977C10.4501 22.3226 10.4337 22.3557 10.4298 22.3913V22.3913Z" fill="black"/>
<path d="M13.8309 21.7328C13.5625 21.6998 13.2907 21.758 13.0593 21.8981L11.9539 22.4305L12.003 22.5687C12.4347 22.4806 12.871 22.416 13.3097 22.3754C13.5242 22.3586 13.6855 22.3087 13.8289 22.5004L13.9487 23.0567C13.9815 23.3934 14.5182 23.3398 14.5338 23.0136C14.559 22.4828 14.4495 21.8494 13.8309 21.7328Z" fill="black"/>
<path d="M15.4729 23.0306C15.2045 23.2746 15.2944 23.6528 15.3431 23.9739C15.3958 24.3213 15.5699 24.6181 15.5935 24.9699C15.6142 25.2754 16.0304 25.2439 16.0987 24.9819C16.2584 24.5901 16.3142 24.1636 16.2604 23.7438C16.2233 23.524 16.1297 23.3176 15.9889 23.1448C15.8746 23.0162 15.6322 22.8856 15.4729 23.0306Z" fill="black"/>
<path d="M77.7388 33.0153L77.8027 33.0553C77.8821 31.7161 77.667 30.3757 77.1725 29.1286C77.0291 28.8642 76.6777 29.0288 76.6134 29.2548C76.3493 30.4483 76.2728 31.6757 76.3865 32.8927C76.8393 32.7961 77.3108 32.8388 77.7388 33.0153V33.0153Z" fill="black"/>
<path d="M99.3453 34.9065C98.4175 35.5416 97.4253 36.0771 96.3851 36.504C95.2111 36.8616 93.9843 37.0148 92.7584 36.9569C90.2288 36.899 87.7343 36.3314 85.1959 36.4229C83.0792 36.4992 80.1709 37.9605 78.6553 35.9285L78.5734 35.9489L77.9344 36.1058L77.3494 36.4732L77.5207 36.7336C78.1148 37.5871 79.022 38.1713 80.0447 38.3591C81.4955 38.4037 82.9448 38.2293 84.3436 37.8419C87.4296 37.8295 90.5142 37.9762 93.5851 38.2812C95.8092 38.2265 98.884 37.625 99.9571 35.4113C100.144 35.0227 99.6752 34.7144 99.3453 34.9065Z" fill="black"/>
<path d="M87.2107 26.3093C86.3793 26.1157 85.5055 26.2394 84.7606 26.6563C84.7059 25.0436 84.4455 23.4042 84.4171 21.8163C84.3712 19.2775 84.4331 16.7351 84.4459 14.1958C84.4575 11.9625 84.5441 9.70847 84.348 7.48156C84.2979 5.47134 83.7194 3.50976 82.6707 1.79407L82.461 1.9031C83.2625 3.95213 83.6222 6.14733 83.5165 8.345C83.4215 10.4705 83.3276 12.5836 83.3168 14.7122C83.3029 17.0458 83.2985 19.3749 83.3712 21.7077C83.4331 23.7013 83.7278 25.6926 83.7673 27.6847C83.4658 28.3785 82.9363 28.9485 82.2665 29.3002C81.3288 29.6285 80.3516 29.8309 79.3606 29.902C79.3172 29.9075 79.2767 29.9268 79.2452 29.9571C79.2136 29.9873 79.1926 30.027 79.1854 30.0702C79.1782 30.1133 79.1851 30.1577 79.2051 30.1966C79.2251 30.2355 79.2571 30.2669 79.2963 30.2862C79.9925 30.6097 80.7557 30.7628 81.5228 30.733C82.2898 30.7032 83.0388 30.4914 83.7078 30.1149C84.2897 29.7009 84.7495 29.1381 85.0393 28.4854C85.3305 27.9115 85.5585 27.513 86.2498 27.3672L87.2938 27.1807C87.7671 27.0728 87.6089 26.3943 87.2107 26.3093Z" fill="black"/>
<path d="M99.7061 33.48C98.9497 31.7552 96.1601 31.4341 94.5434 31.0802C93.3454 30.8816 92.1872 30.4914 91.1132 29.9248C90.1764 29.2683 89.3788 28.4329 88.7664 27.4667L88.4989 27.5274C88.0396 29.6592 90.6395 31.1393 92.2985 31.6681C93.4795 32.0443 94.7043 32.2336 95.9045 32.5347C97.1285 32.8418 98.1693 33.6027 99.3706 33.885C99.423 33.8931 99.4766 33.8875 99.5261 33.8686C99.5756 33.8498 99.6194 33.8185 99.6532 33.7777C99.687 33.7369 99.7097 33.688 99.7189 33.6358C99.7282 33.5837 99.7238 33.53 99.7061 33.48V33.48Z" fill="black"/>
<path d="M65.3902 36.7686C63.6275 36.8637 61.8751 37.0986 60.1496 37.4711C58.225 37.7778 56.2961 38.0585 54.3587 38.2794C50.7489 38.7183 47.1072 38.8361 43.4766 38.6312C39.8199 38.4016 36.2754 37.6392 32.6535 37.146C30.8696 36.8684 29.0571 36.8251 27.262 37.0174C32.7755 38.7341 38.4881 39.7298 44.2573 39.9795C47.7887 40.0314 51.3186 39.8036 54.814 39.2982C56.5521 39.0853 58.2849 38.8321 60.0142 38.5574C61.8633 38.3613 63.6905 37.9954 65.4725 37.4643C65.5533 37.4409 65.6231 37.3896 65.6696 37.3195C65.7161 37.2494 65.7362 37.1651 65.7264 37.0815C65.7165 36.998 65.6773 36.9207 65.6157 36.8634C65.5541 36.806 65.4742 36.7724 65.3902 36.7686Z" fill="black"/>
<path d="M66.6534 33.2658C62.7356 32.8828 58.8584 32.507 54.9182 32.4207C53.7444 32.3948 49.3513 32.6604 48.9276 32.7127C47.1732 33.0613 45.3857 33.2152 43.5975 33.1716C41.8084 32.9365 40.0584 32.4646 38.3937 31.7682L39.1154 31.3221C39.5392 30.9807 39.9346 30.6053 40.2975 30.1998C41.2114 29.2325 42.1786 28.3171 43.1946 27.4577C43.9824 26.7212 44.82 26.0397 45.7014 25.4181C46.7758 24.7602 47.949 24.2795 49.176 23.9943C49.3585 23.9484 49.2874 23.6545 49.1045 23.6748C46.7455 23.9658 44.5136 24.906 42.6574 26.3906C41.6239 27.1989 40.658 28.0901 39.7691 29.0552C39.0421 29.8253 38.384 30.6576 37.8022 31.5425C36.3235 30.9298 34.8018 30.4265 33.2494 30.0365C31.7665 29.72 30.2558 29.5514 28.7396 29.5333L28.7336 29.5253C26.9565 28.5648 24.8737 28.3388 22.9319 28.8959C22.1626 29.0865 21.4608 29.4856 20.9036 30.0493C20.3464 30.613 19.9554 31.3194 19.7737 32.0909L19.8595 32.1168C20.2879 31.4516 20.8524 30.8847 21.5158 30.4536C22.1792 30.0224 22.9265 29.7368 23.7083 29.6155C24.5719 29.4794 25.4485 29.4446 26.3202 29.5117L26.8482 29.564C25.5195 29.5918 24.1999 29.7898 22.9215 30.1531L22.9407 30.3068C24.8385 30.3268 26.712 30.1655 28.6118 30.3068C30.467 30.4394 32.3019 30.7761 34.0833 31.3109C37.1911 32.6449 40.4485 33.5995 43.7849 34.154C47.4983 34.235 51.2133 34.1039 54.9118 33.7614C58.8077 33.5406 62.7515 33.5825 66.6534 33.6193C66.8842 33.6217 66.8779 33.2858 66.6534 33.2658Z" fill="black"/>
<path d="M78.9266 35.8084C77.8626 35.9308 76.8132 36.1582 75.7939 36.4874C74.8178 36.757 73.824 36.9579 72.8198 37.0888C70.707 37.3048 68.5819 37.3762 66.4594 37.3025L66.4194 37.4702C68.2454 38.4999 70.3855 38.8249 72.4348 38.3836C73.4831 38.1881 74.5177 37.9249 75.5319 37.5956C76.7588 37.3374 77.9462 36.9185 79.0636 36.35C79.2857 36.2162 79.2034 35.7948 78.9266 35.8084Z" fill="black"/>
<path d="M68.6814 33.9995L68.6874 34.0235L68.6814 33.9995Z" fill="black"/>
<path d="M74.1917 31.3636C72.0423 31.2039 69.8924 31.6665 67.999 32.6964L68.027 32.9228C70.174 32.9896 72.313 32.6325 74.3219 31.872C74.5995 31.7518 74.427 31.3916 74.1917 31.3636Z" fill="black"/>
<path d="M79.8218 33.7345C78.9905 33.1361 78.0342 32.734 77.0249 32.5587C76.0157 32.3834 74.9798 32.4394 73.9954 32.7225L74.0034 32.7872C75.0097 32.8585 76.0049 33.0432 76.9699 33.3375C77.8185 33.663 78.6853 33.939 79.5658 34.1642C79.8027 34.1998 80.0179 33.9326 79.8218 33.7345Z" fill="black"/>
<path d="M20.9071 36.9622C15.7803 38.405 10.3074 37.9761 5.46806 35.7521C4.27207 35.1578 3.25159 34.2621 2.50721 33.1533C1.76283 32.0445 1.32026 30.7608 1.22312 29.4288C1.20974 27.9928 1.64912 26.589 2.47888 25.4168C3.30864 24.2447 4.48659 23.3637 5.84547 22.8991L5.79715 22.6842C4.45855 22.9528 3.22347 23.5952 2.23503 24.537C1.24659 25.4788 0.545257 26.6814 0.212299 28.0055C-0.137251 29.4545 -0.0537517 30.9742 0.452439 32.3762C0.958631 33.7782 1.86524 35.0008 3.05984 35.8923C5.68193 37.6503 8.69809 38.7325 11.8397 39.0426C14.9813 39.3527 18.1508 38.881 21.066 37.6695C21.4734 37.5745 21.3136 36.9119 20.9071 36.9622Z" fill="black"/>
<path d="M16.6522 35.3354C15.5145 35.2197 14.411 34.8798 13.4054 34.3353C12.3998 33.7907 11.512 33.0524 10.7934 32.1628C11.0626 32.0713 11.318 31.9431 11.5522 31.7818C11.9912 31.5018 12.3657 31.1316 12.6509 30.6959L12.4827 30.5541C12.1736 30.9486 11.7679 31.2567 11.305 31.4487C11.0082 31.5685 10.6919 31.5861 10.396 31.68C8.7438 29.4326 7.54383 26.8858 6.86275 24.1809L6.63989 24.2308C6.65465 27.2084 7.57068 30.1117 9.26738 32.5586C10.2072 33.5577 11.3419 34.3534 12.6015 34.8965C13.8611 35.4396 15.2186 35.7185 16.5903 35.716C16.8315 35.7252 16.9062 35.357 16.6522 35.3354Z" fill="black"/>
<path d="M10.2441 35.9722C8.69945 35.2025 7.36791 34.0644 6.36698 32.6585C5.36606 31.2526 4.7265 29.6219 4.50473 27.9104L4.29985 27.9292C4.21055 29.7795 4.73265 31.6077 5.78558 33.1318C6.83851 34.6559 8.36374 35.7912 10.1259 36.3623C10.362 36.4306 10.437 36.0764 10.2441 35.9722Z" fill="black"/>
<path d="M23.5277 26.8248C21.7589 27.8512 19.0499 29.1372 18.0112 26.5453L17.8446 26.5609C17.4852 28.0841 19.1314 28.8581 20.397 28.9072C22.3208 28.9823 22.167 28.166 23.7018 27.0737C23.8636 26.959 23.6946 26.7278 23.5277 26.8248Z" fill="black"/>
<path d="M43.5968 15.6048C42.0983 15.9582 40.5615 16.0409 39.0523 16.3297C36.6328 16.4906 34.3725 17.5924 32.7553 19.3992C31.9379 18.9042 31.0201 18.598 30.0692 18.5029C29.1183 18.4079 28.1581 18.5263 27.2588 18.8497C25.7466 19.4279 24.4611 20.4783 23.5933 21.845C22.7112 23.1675 22.191 24.698 22.0845 26.284L22.13 26.2972C22.5398 25.1686 23.043 24.0761 23.6344 23.0311C24.4423 21.7909 25.5659 20.7882 26.8897 20.1261C28.0922 19.5884 29.4416 19.4748 30.717 19.804C31.9924 20.1331 33.1183 20.8856 33.9103 21.9381C33.9428 21.9703 33.9848 21.9911 34.03 21.9974C34.0753 22.0037 34.1214 21.9952 34.1614 21.9731C34.2014 21.951 34.2331 21.9166 34.2519 21.8749C34.2706 21.8332 34.2754 21.7866 34.2654 21.742C34.1425 20.938 33.735 20.2049 33.1172 19.676L34.4902 18.9108C35.7482 21.05 37.113 23.1246 38.5794 25.1267L38.7739 25.0212C37.7148 22.8139 36.8881 20.4596 35.6169 18.3605L36.5099 18.009C37.8303 17.6013 39.1773 17.2849 40.5411 17.0621C43.2345 16.5333 45.1979 15.227 43.5968 15.6048Z" fill="black"/>
<path d="M24.5151 36.4302C23.9329 35.7741 23.2579 35.1802 22.7427 34.4697C22.253 33.6182 21.9813 32.6588 21.952 31.6769L21.7379 31.5814C20.7251 32.1405 21.0003 33.5839 21.4352 34.4425C21.026 34.3643 20.6045 34.3774 20.201 34.481C19.7975 34.5846 19.4218 34.776 19.1008 35.0416C20.9676 35.0344 22.7916 35.6005 24.3262 36.6635L24.5151 36.4302Z" fill="black"/>
<path d="M80.8933 0.000179515C78.1307 -0.0107058 75.3885 0.473533 72.7968 1.42994C70.0267 2.3485 67.2894 3.35213 64.6152 4.52389C62.0069 5.6665 59.4481 6.93731 56.956 8.31555C55.7275 8.99448 46.5966 14.0625 45.2903 14.654L45.3522 14.8242C46.0527 15.5394 54.0897 10.6355 56.3106 9.45257C58.893 8.07752 61.4849 6.72884 64.1611 5.5439C66.7055 4.40262 69.3132 3.40788 71.9713 2.56457C74.7815 1.52939 77.7463 0.975808 80.7407 0.927129C81.3354 0.948695 81.4959 0.0225445 80.8933 0.000179515Z" fill="black"/>
<path d="M78.7431 22.084C78.2718 20.4122 77.4723 18.8555 76.9331 17.2057C76.4056 15.5914 75.3268 11.8712 76.8093 10.3943L78.0074 9.93945C78.6189 9.73337 78.2694 8.87551 77.6728 9.02089C74.8356 9.8897 72.1966 11.3073 69.9057 13.1931C67.6588 14.6758 65.5766 16.3942 63.6947 18.3191C62.9985 16.853 62.1064 15.4883 61.0428 14.2623C59.9306 12.6796 58.7301 11.1699 57.6082 9.59719L57.4217 9.66548C57.7184 10.6155 58.1995 11.4976 58.8375 12.2614C59.55 13.3174 60.1275 14.468 60.7653 15.5702C61.4178 16.5562 61.9682 17.6061 62.4079 18.7037C62.4898 18.9749 62.6021 19.2361 62.7426 19.4821C61.3882 21.751 59.2255 23.4234 56.6889 24.1636C55.451 24.3496 54.189 24.2975 52.9707 24.0098C52.1444 23.7534 51.2559 23.7827 50.4482 24.0929L50.5609 24.3101C51.7678 24.2454 52.9727 24.4698 54.0754 24.9647C55.2143 25.2227 56.3968 25.2194 57.5343 24.9551C60.1028 24.2025 62.3279 22.5768 63.8257 20.3587C65.7096 18.2609 67.8107 16.3689 70.0939 14.7144C71.8115 13.2501 73.684 11.9779 75.6779 10.9203C75.52 11.2581 75.4064 11.6149 75.34 11.9818C75.1367 13.1747 75.1481 14.3942 75.3736 15.583C75.7917 17.4655 76.405 19.2992 77.2035 21.0544C77.5586 21.9754 77.9224 22.8955 78.2587 23.8237C78.5226 24.8919 78.8437 25.9451 79.2207 26.9787C79.2387 27.0198 79.2692 27.0541 79.3079 27.0767C79.3466 27.0993 79.3915 27.1091 79.4361 27.1045C79.4807 27.1 79.5227 27.0814 79.556 27.0515C79.5894 27.0216 79.6124 26.9818 79.6217 26.938C79.6569 25.2775 79.3581 23.6268 78.7431 22.084Z" fill="black"/>
<path d="M51.6963 22.9173C51.4034 22.2807 51.056 21.6706 50.658 21.0938C50.2458 20.3749 49.9071 19.6425 49.5565 18.8933C49.15 17.4994 48.5404 16.1731 47.7473 14.957L47.6694 15.0117C47.9384 15.9042 48.1539 16.8118 48.3148 17.7299C48.4031 18.5614 48.6019 19.3775 48.9059 20.1565C49.4115 21.333 50.2114 22.7552 51.5466 23.0975L51.6963 22.9173Z" fill="black"/>
<path d="M76.7167 26.734C76.354 26.9073 76.0306 27.1529 75.7662 27.4558C75.5019 27.7586 75.3022 28.1122 75.1795 28.495C75.0567 28.8778 75.0135 29.2816 75.0525 29.6817C75.0914 30.0818 75.2117 30.4697 75.406 30.8216C75.5342 31.1543 76.1005 31.1479 76.1348 30.7541C76.1302 30.0922 76.1662 29.4307 76.2427 28.7732C76.4385 28.2331 76.7368 27.736 77.1213 27.3091C77.1695 27.2469 77.1965 27.1709 77.1983 27.0923C77.2001 27.0136 77.1767 26.9365 77.1314 26.8721C77.0861 26.8078 77.0214 26.7597 76.9468 26.7348C76.8722 26.7099 76.7915 26.7097 76.7167 26.734Z" fill="black"/>
<path d="M75.123 0.136475C72.4097 0.878112 69.6364 1.32341 66.9407 2.14692C64.3228 2.9415 61.7798 3.9645 59.341 5.20413C54.9079 7.01416 50.7393 9.41408 46.948 12.3389L47.0702 12.5143C49.0117 11.0842 51.1267 9.90622 53.3647 9.00856C55.5925 7.98497 57.7742 6.90786 59.9648 5.81038C62.3743 4.65965 64.8571 3.66931 67.3972 2.84582C69.9719 1.95602 72.5351 0.974753 75.153 0.221533L75.123 0.136475Z" fill="black"/>
<path d="M76.1526 20.1715C74.9315 18.2725 74.3176 16.0467 74.3925 13.7903L74.2364 13.7432C73.7821 15.6329 74.0014 17.6219 74.8566 19.3672C75.264 20.5142 75.8035 21.5849 76.3103 22.6883C76.8295 23.8202 77.0827 25.0606 77.5931 26.1801L77.8747 26.1909C78.6267 24.2387 76.9354 21.8672 76.1526 20.1715Z" fill="black"/>
</svg>
