<svg width="100" height="62" viewBox="0 0 100 62" fill="none" xmlns="http://www.w3.org/2000/svg">
<path d="M76.203 60.4246C75.2868 60.2271 74.4004 59.9103 73.5666 59.4822C72.9604 59.3099 72.3413 59.187 71.7153 59.1146C71.0274 59.0233 70.3386 58.9519 69.6599 58.8023C69.0794 58.5799 68.4645 58.4605 67.8429 58.4495L67.7397 58.6109C68.1792 59.8879 70.4687 59.931 71.5539 60.0819C72.4778 60.192 73.3845 60.4163 74.2533 60.7495C74.8941 61.0635 75.6299 61.1238 76.3133 60.9186C76.607 60.8252 76.4718 60.4288 76.203 60.4246Z" fill="black"/>
<path d="M79.7606 58.8341C78.52 57.8845 77.106 57.1865 75.5978 56.7791C74.1492 56.2579 72.6543 55.8759 71.1333 55.6382L71.072 55.8381C72.4948 56.5142 73.9785 56.979 75.4423 57.5571C76.7863 58.1944 78.1624 58.762 79.5649 59.2575C79.8134 59.3256 79.9237 58.9816 79.7606 58.8341Z" fill="black"/>
<path d="M79.3688 59.6257C77.9055 59.6735 76.4407 59.6424 74.9808 59.5327L74.9512 59.6291C75.6135 60.0508 76.3717 60.2982 77.1553 60.3482C77.9389 60.3982 78.7224 60.2492 79.433 59.9151L79.3688 59.6257Z" fill="black"/>
<path d="M8.474 45.3605C7.06345 45.8367 5.20371 46.3349 4.10333 44.8995C3.71527 44.2705 3.48344 43.5577 3.42721 42.8208C3.28696 42.0614 3.0601 41.3206 2.75109 40.6129C1.76785 39.1164 1.08087 37.4452 0.727387 35.6899C0.710062 33.2428 3.20662 33.2567 5.00214 33.064L5.03552 32.802C4.42448 32.5641 0.819086 32.2527 0.130291 34.2354C-0.261555 36.499 0.238206 38.8263 1.52478 40.7295C1.96772 41.8164 2.28379 42.9507 2.4667 44.1101C2.50717 44.5666 2.64121 45.0099 2.86048 45.4124C3.07974 45.8149 3.37953 46.1679 3.74118 46.4495C4.66166 46.9154 5.69038 47.1257 6.7199 47.0584C7.16063 47.1354 7.61362 47.1015 8.03793 46.9595C8.46223 46.8176 8.84448 46.5721 9.15012 46.2453C9.22236 46.1439 9.26022 46.022 9.25813 45.8975C9.25605 45.773 9.21413 45.6524 9.13852 45.5535C9.06291 45.4545 8.9576 45.3824 8.83801 45.3477C8.71842 45.3129 8.59085 45.3174 8.474 45.3605Z" fill="black"/>
<path d="M9.26168 40.8367C9.33225 40.3486 9.62847 39.9734 9.61579 39.4735C9.55812 38.9534 9.41176 38.447 9.18308 37.9763C8.75712 36.9325 7.74252 37.1396 6.93964 36.5818C5.83207 35.8106 6.19252 34.447 5.78516 33.3436H5.53162C5.13145 34.5133 4.53731 35.3749 5.16145 36.6067C5.42236 37.1174 5.81198 37.5512 6.29183 37.8652C6.74451 38.0982 7.23712 38.2438 7.74379 38.2941C8.04424 38.3651 8.78417 38.5607 8.70853 39.0644L8.2175 39.4912C7.88938 39.9395 7.71064 40.4797 7.7066 41.0353C7.79202 42.3518 8.32525 43.5994 9.21773 44.571C9.24861 44.6087 9.28971 44.6367 9.33609 44.6516C9.38247 44.6666 9.43218 44.6678 9.47926 44.6552C9.52635 44.6427 9.5688 44.6168 9.60156 44.5807C9.63432 44.5446 9.65599 44.4999 9.66397 44.4518C9.46666 43.2547 9.33238 42.0479 9.26168 40.8367V40.8367Z" fill="black"/>
<path d="M59.4488 32.2071C53.2188 29.4811 47.2371 26.2195 41.571 22.4592C40.4501 21.5213 39.4558 20.4418 38.613 19.2477C39.5038 18.3638 40.6555 17.7903 41.8977 17.6119C44.064 17.0291 46.2828 16.6629 48.5215 16.5187C48.7565 16.5009 48.7831 16.1118 48.5367 16.0961C46.04 15.9039 43.5289 16.1535 41.1189 16.8335C39.974 17.0636 38.9276 17.64 38.1211 18.4845C37.3187 17.1923 36.7984 15.745 36.5944 14.2376C36.5532 12.5352 36.9315 10.8488 37.6959 9.32713C38.4603 7.80544 39.5874 6.4952 40.9777 5.51193L40.9329 5.44727C39.5014 6.16308 38.2578 7.20472 37.3019 8.48846C36.3461 9.77221 35.7047 11.2623 35.4293 12.8389C35.3891 13.2376 35.376 13.6386 35.39 14.039C32.6305 16.3478 29.7156 18.4644 26.666 20.3738C24.8065 21.3863 22.7766 22.0483 20.6777 22.327C18.9693 22.5266 17.3097 23.0273 15.7759 23.806C14.7131 24.4153 6.24305 32.6001 6.03979 32.874C5.8771 33.0933 6.09388 33.4233 6.35841 33.2636C9.4847 30.9273 12.4739 28.4129 15.3111 25.7329C18.3718 23.3665 22.2898 23.7045 25.6996 22.1698C27.9734 21.0638 30.1049 19.6865 32.0475 18.0678C32.9689 18.255 33.8516 18.598 34.6577 19.082C35.8972 19.8514 37.0362 20.7719 38.0485 21.8224C38.1858 21.9792 38.4406 21.8144 38.3197 21.6331C37.7569 20.5931 36.9871 19.6793 36.0577 18.948C35.1284 18.2167 34.0591 17.6835 32.9159 17.3812C33.693 16.7617 34.4646 16.1413 35.24 15.5434L35.5223 15.3321C36.0574 17.9009 37.3314 20.2574 39.1877 22.1119C39.6155 22.5599 40.0657 22.986 40.5366 23.3885C37.7171 24.5878 34.8213 25.5994 31.8683 26.4166C30.0597 26.9461 28.2224 27.3628 26.3956 27.8229C24.4393 28.3103 22.5208 28.9388 20.6553 29.7034C18.9425 30.4048 17.2811 31.2261 15.6838 32.1611C13.909 33.1994 10.5284 35.2239 8.85075 36.4088L8.96654 36.6623C9.04852 36.626 20.6718 30.8414 21.7097 30.4928C25.4135 29.2897 29.1836 28.3012 33.0012 27.5322C36.1083 26.8837 39.1303 25.8794 42.0075 24.5391C45.9364 26.9767 50.1381 28.9441 54.5263 30.4006C54.158 30.3711 53.7875 30.3852 53.4225 30.4429C52.1092 30.636 50.8221 30.9773 49.5856 31.46C46.9489 32.5818 44.2045 33.4314 41.3952 33.9955L41.3923 34.0732C43.8487 34.1707 46.2969 33.7328 48.5671 32.7899C49.7892 32.3715 51.0105 32.0102 52.26 31.6853C53.4667 31.2937 54.7232 31.077 55.9913 31.0417C57.0241 31.4917 58.3332 31.9714 59.3128 32.5097C59.5021 32.6124 59.6276 32.3149 59.4488 32.2071Z" fill="black"/>
<path d="M42.4574 46.6294C41.0468 47.1056 39.1871 47.6038 38.0867 46.1684C37.6987 45.5394 37.4668 44.8266 37.4106 44.0897C37.2704 43.3303 37.0435 42.5895 36.7345 41.8818C35.7513 40.3853 35.0643 38.7141 34.7108 36.9588C34.6935 34.5117 37.19 34.5256 38.9855 34.3329L39.0189 34.0709C38.4079 33.833 34.8025 33.5216 34.1137 35.5043C33.7218 37.7679 34.2216 40.0953 35.5082 41.9984C35.9511 43.0853 36.2672 44.2197 36.4501 45.379C36.4906 45.8355 36.6246 46.2789 36.8439 46.6813C37.0631 47.0838 37.3629 47.4368 37.7246 47.7184C38.6451 48.1843 39.6738 48.3946 40.7033 48.3273C41.1439 48.4045 41.5969 48.3707 42.0212 48.229C42.4455 48.0873 42.8277 47.8421 43.1335 47.5155C43.2063 47.4141 43.2446 47.292 43.2428 47.1672C43.241 47.0424 43.1991 46.9215 43.1234 46.8223C43.0477 46.723 42.9421 46.6507 42.8222 46.616C42.7023 46.5813 42.5744 46.586 42.4574 46.6294Z" fill="black"/>
<path d="M43.2451 42.1057C43.3156 41.6177 43.6119 41.2424 43.5992 40.7425C43.5415 40.2224 43.3952 39.716 43.1665 39.2453C42.7405 38.2016 41.7259 38.4087 40.923 37.8509C39.8155 37.0797 40.1759 35.716 39.7686 34.6127H39.515C39.1148 35.7824 38.5207 36.644 39.1448 37.8758C39.4058 38.3864 39.7954 38.8202 40.2752 39.1342C40.7279 39.3673 41.2205 39.5128 41.7272 39.5631C42.0276 39.6341 42.7676 39.8298 42.6919 40.3335L42.2009 40.7603C41.8728 41.2086 41.694 41.7488 41.69 42.3043C41.7754 43.6208 42.3087 44.8685 43.2011 45.84C43.2319 45.8781 43.2731 45.9065 43.3197 45.9217C43.3662 45.9369 43.4162 45.9382 43.4635 45.9256C43.5109 45.913 43.5536 45.887 43.5864 45.8506C43.6192 45.8143 43.6409 45.7692 43.6486 45.7209C43.4509 44.5237 43.3162 43.317 43.2451 42.1057V42.1057Z" fill="black"/>
<path d="M85.6377 19.1272C84.5589 18.6932 84.1866 16.9924 83.7966 16.0285C83.4632 14.959 83.2038 13.8679 83.0203 12.7628L82.8221 12.7206C82.5904 13.3388 82.5047 14.0022 82.572 14.6589C81.4198 14.0667 80.1148 13.8387 78.8301 14.0052L78.8326 14.1125C79.9461 14.435 82.0864 14.6344 82.6844 15.7627L82.7266 15.8269C82.8009 16.2269 82.9095 16.6198 83.0512 17.0012C83.5583 18.2428 84.1165 19.4277 85.5676 19.4522C85.6051 19.4497 85.6408 19.4351 85.6692 19.4106C85.6977 19.3861 85.7174 19.3529 85.7253 19.3162C85.7333 19.2794 85.729 19.2411 85.7132 19.207C85.6974 19.1729 85.6709 19.1449 85.6377 19.1272Z" fill="black"/>
<path d="M99.9618 9.41027C100.118 7.83923 99.7942 6.25784 99.0339 4.8742C98.2737 3.49056 97.1123 2.3695 95.7027 1.65858C94.14 0.981164 92.4418 0.67455 90.7409 0.76273C89.1091 0.742008 87.4867 1.0129 85.9502 1.56266C84.4365 2.19018 83.0606 3.65144 81.3682 3.66073C80.3498 3.66665 79.2765 3.41649 78.2593 3.32775C77.365 3.25202 76.467 3.22931 75.5701 3.25972L75.5789 3.47354C76.5765 3.49584 77.5704 3.60214 78.5501 3.79132C79.2655 3.93879 79.9407 4.23079 80.6511 4.38925C81.7581 4.58613 82.8985 4.35665 83.8432 3.74695C85.1293 2.8418 86.5931 2.22025 88.1375 1.92345C89.6819 1.62666 91.2718 1.66141 92.8018 2.02538C94.3475 2.19189 95.7902 2.88055 96.8918 3.97764C97.9934 5.07474 98.6878 6.51468 98.8606 8.05973C99.2158 9.69922 99.1234 11.4041 98.5933 12.9956C98.0631 14.5871 97.1146 16.0068 95.8472 17.1058C95.6296 17.2397 95.7948 17.6433 96.034 17.5355C96.7132 17.253 97.328 16.8354 97.841 16.3082C98.3541 15.781 98.7547 15.1551 99.0187 14.4685C99.6439 12.8555 99.9637 11.1402 99.9618 9.41027V9.41027Z" fill="black"/>
<path d="M89.3487 10.0262C87.3871 9.72732 85.4712 9.18109 83.6469 8.40059C82.0893 7.23992 80.4249 6.22994 78.6762 5.38426C78.4966 5.32468 78.4252 5.56766 78.5245 5.68006C79.1233 6.29815 79.7975 6.83836 80.5313 7.28795C81.3392 7.8373 81.9921 8.48892 82.7502 9.08939C83.3859 9.57507 84.0819 9.9762 84.8208 10.2827L84.6095 10.7239C84.5541 10.9433 84.5765 11.175 84.6729 11.3797L85.0266 11.5348C85.1758 11.3556 85.0727 11.0907 85.1733 10.8807L85.4961 10.5574C87.5148 11.0522 89.4797 11.745 91.3623 12.6259C92.8328 13.6164 94.9005 14.8271 95.0665 16.7722L95.3201 16.7933C95.7748 13.3667 92.324 10.7683 89.3487 10.0262Z" fill="black"/>
<path d="M91.9461 17.455C91.6959 17.1723 91.3042 17.1005 91.0164 16.8634L90.6501 16.5195L90.1468 16.1611L90.1071 16.1844C90.1018 16.4168 90.1303 16.6489 90.1916 16.8732L90.5922 17.3921C90.7703 17.5332 90.9762 17.635 91.1964 17.6909C91.4167 17.7468 91.6462 17.7554 91.87 17.7162L91.9461 17.455Z" fill="black"/>
<path d="M93.1285 16.9059C92.8185 16.4885 92.3922 16.1719 91.9031 15.9957L91.1657 15.7738C90.9418 15.676 90.7059 15.6085 90.4642 15.5731L90.457 15.5934C90.6911 15.863 91.0195 16.0282 91.2747 16.2814C91.5154 16.5131 91.7766 16.7224 92.0552 16.9068C92.2754 17.0589 92.8091 17.6289 93.0926 17.2951L93.1285 16.9059Z" fill="black"/>
<path d="M88.579 18.6529C88.3894 18.4347 88.1503 18.2652 87.8817 18.1585L87.5348 17.9514L87.2158 17.6932L87.0835 17.7778L87.2238 18.1623L87.4545 18.5743C87.535 18.7205 87.6447 18.8485 87.7769 18.9503C87.9091 19.0521 88.0609 19.1255 88.2228 19.1659L88.5426 19.0632L88.5942 18.9889L88.579 18.6529Z" fill="black"/>
<path d="M95.3191 11.2394C95.0975 10.2491 94.5893 9.3459 93.8578 8.64246C93.1263 7.93903 92.204 7.46647 91.2058 7.28372C88.2351 6.38913 84.9939 6.76691 82.0482 5.66907L81.9561 5.84992C82.9764 6.49752 84.0645 7.03159 85.201 7.44261C86.4402 7.78233 87.7108 7.99471 88.9932 8.07646C91.2751 8.31986 94.1541 8.84723 95.1053 11.2791L95.3191 11.2394Z" fill="black"/>
<path d="M91.3333 19.0752C91.2152 19.0961 91.094 19.0913 90.978 19.0611C90.862 19.0309 90.7538 18.9761 90.6609 18.9002L90.2384 18.4857C90.141 18.3897 90.0201 18.3209 89.8878 18.2862C89.7555 18.2515 89.6165 18.2521 89.4845 18.2879L89.446 18.361C89.4877 18.5773 89.5848 18.779 89.7277 18.9466C89.8706 19.1141 90.0546 19.2417 90.2616 19.3169C90.4465 19.3768 90.6425 19.3943 90.8351 19.3682C91.0277 19.3421 91.212 19.273 91.3742 19.166L91.3333 19.0752Z" fill="black"/>
<path d="M89.0035 48.0553C87.635 47.3022 86.1325 46.8236 84.5804 46.6465C83.0702 46.3484 81.5349 46.1949 79.9955 46.188L79.9651 46.3946C81.4728 46.851 83.0076 47.0898 84.5432 47.4405C85.9676 47.8696 87.4132 48.2249 88.8742 48.505C89.1273 48.535 89.1869 48.177 89.0035 48.0553Z" fill="black"/>
<path d="M88.7272 48.891C87.2875 49.1571 85.8346 49.3456 84.3747 49.4556L84.3599 49.5553C85.0778 49.8732 85.8645 50.0044 86.6468 49.9366C87.429 49.8689 88.1815 49.6044 88.8341 49.1678L88.7272 48.891Z" fill="black"/>
<path d="M83.0366 50.2606C82.614 49.3005 81.722 49.2265 80.7872 48.9954C79.6723 48.7709 78.574 48.4706 77.5 48.0966L77.3652 48.2656C78.5793 50.1431 81.1519 49.3072 82.7201 50.5627C82.9132 50.7165 83.1156 50.4406 83.0366 50.2606Z" fill="black"/>
<path d="M77.0114 43.869L76.4152 40.3359C76.0233 37.8216 75.8138 35.2822 75.7885 32.7376C75.707 27.6874 75.573 22.6347 75.7019 17.5841L75.6174 17.5693C75.0898 20.0524 74.8501 22.5879 74.9028 25.1258C74.7895 27.7208 74.6569 30.2989 74.6873 32.899C74.7055 35.2711 74.895 37.6387 75.2544 39.9835C75.4593 41.2858 75.6951 42.5831 75.9203 43.8817C76.0366 45.1529 76.3502 46.3983 76.85 47.5729C76.8774 47.6226 76.9202 47.6622 76.972 47.6856C77.0237 47.709 77.0817 47.7151 77.1372 47.7029C77.1926 47.6906 77.2427 47.6608 77.2798 47.6178C77.3169 47.5748 77.3392 47.5209 77.3432 47.4643C77.4199 46.2559 77.308 45.043 77.0114 43.869V43.869Z" fill="black"/>
<path d="M79.8135 37.7474C79.8981 35.2094 80.0671 32.6765 80.2044 30.1411C80.3388 27.6804 80.5366 25.2223 80.6532 22.7612C80.9107 20.3733 81.0175 17.9716 80.9731 15.5703L80.7009 15.5576C80.1737 17.9142 79.8477 20.3114 79.7265 22.7232C79.4489 25.2468 79.317 27.7898 79.1805 30.3236C79.0478 32.7864 79.0056 35.2491 78.9418 37.7136C78.7833 40.1946 78.832 42.6846 79.0876 45.1576C79.1159 45.3583 79.3796 45.2996 79.4058 45.128C79.6886 42.6781 79.8248 40.2135 79.8135 37.7474V37.7474Z" fill="black"/>
<path d="M76.6187 5.45892C75.4864 4.72404 74.2097 4.24027 72.8747 4.04018C71.5397 3.84009 70.1773 3.92833 68.8793 4.29896C67.5171 4.53604 66.239 5.11988 65.168 5.99426C64.0969 6.86864 63.2691 8.00409 62.7642 9.29124C62.4893 9.90863 62.3645 10.5824 62.4002 11.2573C62.4359 11.9322 62.631 12.5891 62.9696 13.174C63.3081 13.759 63.7804 14.2554 64.3479 14.6225C64.9153 14.9897 65.5617 15.2171 66.234 15.2863C66.4518 16.0427 66.595 16.8185 66.6616 17.6028C66.0417 17.9526 65.3553 18.1685 64.6468 18.2367C63.7351 18.2329 62.8381 18.0063 62.034 17.5766C59.9714 16.3425 58.38 14.4549 57.5125 12.2133L57.4618 12.2247C57.6577 13.1544 57.9261 14.0673 58.2647 14.955C57.5164 14.6189 56.7285 14.3795 55.9198 14.2425C55.2242 14.0555 54.4959 14.025 53.7871 14.1533C53.0783 14.2815 52.4068 14.5653 51.8208 14.9841L51.9202 15.1756C54.2951 14.6233 56.7915 15.0089 58.8892 16.2519C59.582 17.4887 60.6546 18.4697 61.9482 19.0497C63.4645 19.7245 65.1836 19.7839 66.7428 19.2154C66.7554 20.2912 66.7005 21.3561 66.6561 22.3458C66.5661 24.323 66.5441 26.3019 66.5222 28.2808C65.7939 26.9143 64.8338 25.6846 63.6846 24.6467C61.7483 22.8736 59.7169 21.2072 57.5995 19.6548C56.5663 18.8646 55.433 18.2211 54.3592 17.4887C53.3067 16.7344 52.2171 16.0334 51.0944 15.3881C50.565 15.0999 50.0308 14.8282 49.4887 14.5852C49.1472 13.9624 48.7213 13.4079 48.3312 12.7952C47.7903 11.9454 47.3082 11.0568 46.8163 10.1782C46.2504 9.26623 45.8765 8.24833 45.7176 7.18682C45.6916 6.38501 45.621 5.58526 45.5063 4.79126L45.2625 4.7828C44.9454 5.62763 44.8141 6.53087 44.8775 7.43101C44.941 8.33116 45.1977 9.20706 45.6301 9.99905C46.1153 10.9782 46.6811 11.9281 47.2254 12.8751L47.8715 13.981C46.7063 13.6132 45.4749 13.5038 44.2631 13.6602L44.2855 13.9028C45.5864 14.0359 46.8425 14.4518 47.9657 15.1215C48.9664 15.6138 49.9801 16.1044 50.9427 16.6685C53.0414 17.879 55.0598 19.2234 56.9855 20.6935C58.7472 22.0652 60.5482 23.4403 62.2559 24.877C63.9512 26.1878 65.3918 27.7984 66.5061 29.6288C66.4854 31.2266 66.4558 32.8235 66.3793 34.4183C66.3371 35.2791 66.2754 36.1386 66.2035 36.996C65.7479 37.1393 65.2841 37.255 64.8146 37.3425C63.9141 37.4401 63.0152 37.5314 62.1101 37.596C60.0224 37.7311 57.929 37.7514 55.8391 37.6569C51.8451 37.5137 47.8465 37.7401 43.8942 38.333L43.8875 38.5227C46.061 38.7268 48.2464 38.7741 50.4268 38.6643C52.7902 38.6491 55.1368 38.8359 57.496 38.9272C59.6216 39.065 61.7545 39.0433 63.8769 38.8621C64.6409 38.8036 65.389 38.6125 66.0873 38.2971C65.8431 40.9001 65.5435 43.4985 65.4476 46.1117C65.3422 47.9573 65.4139 49.8088 65.6618 51.6407C65.9542 53.5114 66.4884 55.3437 66.6942 57.2263C66.7123 57.3915 66.9815 57.4152 66.9959 57.2368C67.087 55.3342 67.0383 53.4275 66.8501 51.5321C66.711 49.4395 66.6969 47.3405 66.8078 45.2463C67.0373 41.0688 67.6327 36.9119 67.6952 32.7263C67.759 28.5078 67.9133 24.2892 67.9758 20.0715C68.0281 18.3537 67.6864 16.6467 66.9769 15.0813C66.5349 13.8776 65.7231 12.8447 64.6578 12.1309L64.5526 12.3C65.225 13.0077 65.74 13.8497 66.0637 14.7707C65.3193 14.3861 64.6331 13.898 64.0256 13.3209C63.6086 12.7245 63.3534 12.0302 63.2847 11.3057C63.2161 10.5813 63.3364 9.85139 63.6339 9.18728C64.1181 8.15599 64.8358 7.25165 65.7302 6.5459C66.6246 5.84015 67.6711 5.35239 68.7867 5.12128C70.8679 4.57845 73.0714 4.75338 75.0408 5.6178C76.0058 6.05189 76.8222 6.75947 77.3891 7.65292C78.4671 9.4814 77.0193 11.1958 75.9067 12.5658C75.7406 12.7703 76.0081 13.0826 76.2278 12.9148C76.8531 12.5298 77.3757 11.9987 77.7505 11.3673C78.1253 10.7358 78.3412 10.0228 78.3796 9.28942C78.4181 8.55609 78.2779 7.8244 77.9712 7.15718C77.6645 6.48997 77.2003 5.9072 76.6187 5.45892V5.45892Z" fill="black"/>
<path d="M74.1394 2.30156C71.8658 1.11145 69.3815 0.377199 66.8263 0.140106C64.0418 -0.115172 61.2362 -0.0213407 58.475 0.419423C55.8706 0.824391 53.2893 1.36632 50.7419 2.04295C48.0939 2.63711 45.5237 3.53629 43.0828 4.72249L43.1187 4.79137C47.9619 3.08501 52.9949 1.97462 58.1065 1.48473C56.863 1.9965 55.8431 2.9355 55.2305 4.13258C54.6641 5.38556 54.5026 6.78399 54.7686 8.13307C54.8841 8.89452 55.0392 9.64942 55.2334 10.3947C55.487 11.3324 55.945 12.254 56.1039 13.212L56.2683 13.1968C55.6853 10.5532 55.6172 7.82203 56.0676 5.15267C56.4526 4.23992 57.0345 3.42355 57.7719 2.76199C58.5092 2.10042 59.3836 1.61001 60.3326 1.32584C62.3609 1.18316 64.3966 1.18316 66.4249 1.32584C68.9864 1.47156 71.5218 1.91921 73.9784 2.65948C74.0258 2.68083 74.0798 2.68245 74.1285 2.66399C74.1771 2.64552 74.2165 2.60848 74.2378 2.56102C74.2592 2.51356 74.2608 2.45956 74.2423 2.4109C74.2239 2.36225 74.1868 2.32291 74.1394 2.30156V2.30156Z" fill="black"/>
<path d="M74.142 9.74927L73.9818 9.78519C74.1801 11.6065 74.1998 13.4429 74.0406 15.2681C73.9831 17.285 73.8314 19.2939 73.6053 21.2986C73.1747 25.1195 72.0143 28.8627 71.7756 32.6946C71.6606 34.5408 71.6788 36.3921 71.5055 38.2354C71.3226 40.1792 71.0977 42.118 70.867 44.0559C70.6325 46.0255 70.2712 47.9765 70.0244 49.9453C69.8382 51.8147 69.7642 53.6936 69.8026 55.5719C69.8026 55.8076 70.1647 55.7713 70.1664 55.538C70.5061 51.4544 71.1172 47.3979 71.9957 43.3954C72.2662 41.4697 72.4715 39.5166 72.6144 37.5774C72.7547 35.6708 72.7073 33.7535 72.8983 31.8503C73.0944 29.9026 73.6053 27.9956 73.959 26.0724C74.3161 24.1328 74.6005 22.1848 74.7885 20.2211C75.2691 16.7221 75.0493 13.1625 74.142 9.74927V9.74927Z" fill="black"/>
</svg>
