<svg width="100" height="157" viewBox="0 0 100 157" fill="none" xmlns="http://www.w3.org/2000/svg">
<path d="M99.251 143.735C98.5975 143.21 97.9197 143.053 97.0646 142.857C96.432 142.711 95.6447 142.53 94.6106 142.131C91.7551 141.034 89.5044 141.423 88.1123 141.945C86.3726 142.596 83.9169 143.358 82.7177 143.358C82.0294 143.358 80.5052 143.107 79.16 142.887C77.6914 142.645 76.4279 142.438 75.7345 142.438C74.6256 142.438 74.6257 142.438 73.4803 141.295C72.1195 139.937 69.2918 137.111 67.1332 135.133C65.9931 134.085 65.2441 133.081 64.5211 132.113C63.878 131.251 63.2697 130.436 62.4355 129.634C61.749 128.976 60.8783 128.279 59.9763 127.634C59.8998 126.972 59.6965 125.509 59.1559 122.915C58.8831 121.598 58.6502 120.679 58.459 119.914C58.1201 118.572 57.915 117.759 57.8212 116.063C57.6769 113.348 58.3565 110.188 58.9022 107.653C59.2098 106.219 59.3402 104.465 59.4653 102.767C59.587 101.121 59.7138 99.4198 59.9989 98.0955C60.3117 96.6564 60.8678 94.9098 61.4084 93.2222C61.8776 91.7501 62.3625 90.2311 62.6788 88.9277C62.9882 87.6607 63.0177 86.6961 63.0455 85.8462C63.0803 84.8017 63.1029 84.0492 63.6347 83.0742C64.7696 80.9921 66.5788 78.3139 68.1395 76.409C69.8862 74.2748 73.0302 69.0661 74.1477 66.4609C75.2496 63.8852 77.469 57.2444 78.2267 54.5957C78.5691 53.4 78.7933 52.3989 78.9897 51.5213C79.2174 50.508 79.3964 49.7068 79.6745 48.9647C79.8517 48.4937 80.029 48.1948 80.1819 47.9341C80.5156 47.364 80.832 46.827 80.832 45.5357C80.832 43.4692 76.965 37.2282 76.4158 36.5399C75.7101 35.657 69.8619 24.9563 69.2814 23.0463C68.6366 20.9242 67.8667 19.5582 66.1183 17.4205C65.6038 16.7913 64.9834 15.9814 64.309 15.1055C62.7831 13.1242 61.0573 10.8787 59.6304 9.45359C57.6526 7.47751 52.0094 0.928828 51.9538 0.862785C51.7765 0.659442 51.5106 0.542998 51.2516 0.562115C50.9857 0.576019 50.7372 0.711582 50.5843 0.932304C50.5182 1.02442 49.0079 3.24207 50.5304 6.06976C51.2273 7.36628 52.1258 8.80185 52.8175 9.87071C52.47 9.92284 52.1328 10.0497 51.8565 10.2913C51.5019 10.6024 51.1335 11.202 51.3924 12.2917C51.7487 13.7829 52.9062 14.777 54.1297 15.8285C55.0283 16.6001 55.9546 17.3961 56.6272 18.4407C57.7621 20.2064 58.6311 20.4845 59.5678 20.6496C59.9363 20.7139 60.157 20.7539 60.4698 21.0198C61.4796 21.8853 63.0994 25.7714 63.8711 28.6704C64.6445 31.5745 67.5625 39.8994 68.3046 41.9711C68.4854 42.4768 68.6575 42.9339 68.8191 43.358C69.4673 45.0629 69.8584 46.0901 69.7263 47.6716C69.6272 48.8413 68.7965 50.2508 67.9119 51.7437C67.3366 52.7187 66.7405 53.725 66.299 54.7539C65.8454 55.8123 65.4005 57.2322 64.9712 58.6052C64.5054 60.0895 63.805 62.3297 63.4314 62.6877C62.5311 63.4073 58.6206 66.7529 56.7419 68.6316C55.9529 69.4224 55.3428 70.3244 54.8545 71.0474C54.6807 71.3046 54.4704 71.6157 54.2914 71.8556C54.1454 70.8267 54.3487 68.5291 54.4895 66.9214C54.5607 66.1168 54.632 65.3016 54.6841 64.5248C54.7258 63.8765 54.778 63.2613 54.8266 62.6599C55.0439 60.0304 55.249 57.5468 54.6754 53.8571C54.0063 49.5573 53.0713 46.7957 51.4463 44.3243C49.9256 42.0128 47.9964 41.1786 45.5511 40.1236L45.1757 39.962C42.6608 38.874 40.763 38.7037 38.6235 39.3798C36.6613 40.0002 35.2571 41.0726 33.4444 43.3406C31.5882 45.6643 30.2343 48.0314 29.6625 52.0305C29.3688 54.0952 29.1776 56.4102 29.0108 58.4523C28.8613 60.2754 28.731 61.8483 28.5641 62.8528C28.326 64.2815 28.1296 66.5669 28.0184 68.0668C26.2735 66.878 23.7447 65.0045 22.987 63.8139C21.7339 61.8448 19.9073 58.1916 18.6455 55.1293C18.0633 53.7146 17.3507 52.4719 16.7216 51.3735C16.0438 50.1917 15.4024 49.0742 15.4024 48.4763C15.4024 47.623 16.1845 45.0178 16.7563 43.1147C17.0865 42.0128 17.3959 40.9787 17.5819 40.2348C18.1189 38.0902 19.5962 31.8178 20.161 29.1796C20.6112 27.0836 21.8677 24.249 22.5438 22.7248L22.867 21.9896C23.126 21.383 23.2285 21.3465 24.0315 21.0563C24.3495 20.9416 24.7232 20.8043 25.1785 20.6027C27.1077 19.7441 29.7703 17.4917 29.6486 15.168C29.6104 14.4398 29.8902 14.1739 30.3977 13.6908C30.7644 13.3414 31.2215 12.9087 31.5048 12.2483C31.8315 11.4853 31.875 10.8648 31.9097 10.3678C31.941 9.91589 31.9636 9.58915 32.1756 9.18768C33.0776 7.49489 34.1517 5.18513 34.1517 3.82255C34.1517 3.62269 34.1604 3.41065 34.1708 3.19341C34.2125 2.20798 34.2629 1.09046 33.5486 0.431768C33.2897 0.191927 32.8239 -0.0757208 32.0714 0.0198677C30.6671 0.195403 29.4053 2.00985 28.1835 3.76173C27.7264 4.42042 27.2937 5.04088 26.9304 5.45625C26.2717 6.20879 25.8651 7.02564 25.434 7.88941C24.9544 8.85225 24.4104 9.9437 23.3902 11.169C21.4697 13.4787 17.1317 17.2814 17.0883 17.3197C16.9927 17.4031 16.918 17.5056 16.8658 17.6203C16.5999 18.2182 16.4296 18.8491 16.2297 19.5808C15.8317 21.0459 15.3381 22.8707 13.7774 25.6307C11.8657 29.0162 10.0825 33.528 8.77903 36.8232C8.43317 37.6974 8.12207 38.4864 7.85095 39.1434C7.37127 40.3061 6.76298 41.3298 6.1738 42.3204C5.19185 43.9698 4.34545 45.3932 4.48102 46.9052C4.59051 48.1131 5.11364 49.0881 5.66805 50.1222C6.146 51.0138 6.64132 51.9349 6.88637 53.0733C7.41472 55.5412 10.1798 65.2495 11.565 67.8217C12.0638 68.7463 13.0736 70.267 14.2432 72.0276C16.0924 74.8118 18.3952 78.2756 19.0522 80.0258C19.2938 80.6706 19.6205 81.4752 19.9855 82.3738C21.2698 85.5351 23.0287 89.8662 23.1903 92.4558C23.3606 95.1826 24.3252 99.3851 25.1021 102.762C25.3367 103.782 25.5487 104.703 25.7052 105.447L26.0406 106.983C26.6541 109.757 27.4171 113.204 27.2693 115.88C27.0816 119.236 26.8644 121.84 25.7434 124.81C25.2515 126.117 24.6572 127.314 24.0854 128.477C23.2998 130.064 22.5594 131.562 22.1493 133.17C21.4489 135.914 20.6251 139.282 22.4569 142.433C20.3731 142.181 17.6514 142.151 15.5258 143.18C13.8105 144.014 12.8007 143.656 11.1236 143.069C10.5535 142.869 9.94173 142.655 9.24828 142.469C8.51833 142.277 8.01953 142.08 7.63891 141.931C6.28503 141.404 5.76016 141.401 4.10214 142.607C3.18275 143.274 2.6544 143.526 2.23034 143.728C1.73675 143.961 1.31269 144.162 0.808675 144.79C-0.248013 146.11 -0.270604 148.017 0.749587 149.652C1.71069 151.191 3.2401 151.128 4.85468 151.071C5.33436 151.052 5.85749 151.029 6.42407 151.048C8.5079 151.109 11.1687 151.583 13.9895 152.084L14.9367 152.252C15.8769 152.419 16.9336 152.569 18.0111 152.722C20.4878 153.073 23.0478 153.434 24.4938 154.039C26.2683 154.778 30.1544 155.25 33.9084 155.709C35.0555 155.85 36.1573 155.984 37.1236 156.118C38.7278 156.34 40.2937 156.417 41.8596 156.417C43.5663 156.417 45.2747 156.325 47.0318 156.231C47.7235 156.194 48.424 156.156 49.1261 156.123C53.0661 155.944 56.2361 154.927 58.824 153.014C61.0625 151.356 61.4483 148.933 61.822 146.13C62.213 146.319 62.5832 146.528 63.0056 146.693C65.0963 147.51 66.7457 148.033 68.0752 148.453C69.5681 148.928 70.6474 149.27 71.1358 149.677C71.3513 149.856 71.5338 150.061 71.7198 150.268C72.521 151.158 73.5203 152.265 76.4714 152.265C80.0238 152.265 82.3927 152.053 84.9231 151.51C87.4693 150.965 90.5003 150.61 92.6537 150.61C95.205 150.61 97.8398 150.61 98.8374 149.366C99.6751 148.318 100.749 144.936 99.251 143.735ZM56.2952 72.0224C56.7662 71.3255 57.2981 70.5347 57.9724 69.8621C59.8077 68.0251 63.6364 64.7507 64.5176 64.0434C65.2441 63.4629 65.7672 61.8778 66.6292 59.1249C67.0463 57.7936 67.4774 56.4154 67.8962 55.4369C68.2942 54.5123 68.8608 53.5547 69.4065 52.6266C70.3937 50.9581 71.3252 49.3818 71.4556 47.8142C71.6207 45.8398 71.1271 44.5398 70.4423 42.7393C70.2842 42.3256 70.1156 41.8807 69.9383 41.3854C69.2049 39.3294 66.3077 31.067 65.5499 28.222C64.9695 26.0495 63.2437 21.1067 61.5995 19.6989C60.9252 19.1219 60.3152 19.0142 59.8685 18.9377C59.3106 18.8387 58.9057 18.7691 58.0923 17.5004C57.2807 16.2421 56.2083 15.321 55.2629 14.5094C54.2149 13.6091 53.3111 12.8322 53.0852 11.8885C53.047 11.7251 53.0435 11.6278 53.0296 11.5965C53.2538 11.5409 53.843 11.6313 54.2966 11.8016C54.6546 11.9337 55.0561 11.8224 55.2872 11.5235C55.5201 11.2228 55.5357 10.8075 55.3202 10.4946C55.2994 10.4651 53.3094 7.56441 52.0598 5.24422C51.6166 4.42389 51.5488 3.69221 51.6114 3.12563C53.3372 5.11387 56.867 9.15118 58.3999 10.6823C59.7451 12.0293 61.4362 14.2278 62.9273 16.1656C63.6156 17.0572 64.2482 17.8793 64.7731 18.5189C66.3755 20.4793 67.0411 21.6559 67.6164 23.552C68.2595 25.6637 74.2033 36.5556 75.0584 37.6261C75.8457 38.6098 79.094 44.2374 79.094 45.5357C79.094 46.3543 78.9567 46.5889 78.6838 47.0547C78.5031 47.3658 78.2754 47.7533 78.0495 48.3547C77.7262 49.2098 77.5263 50.1048 77.2934 51.1424C77.104 51.9922 76.8868 52.9603 76.5548 54.1195C75.8092 56.7265 73.6281 63.2543 72.547 65.7779C71.499 68.2267 68.435 73.305 66.7926 75.3106C65.1728 77.2902 63.2906 80.0779 62.107 82.2434C61.3788 83.5834 61.3441 84.6557 61.3076 85.7924C61.2797 86.597 61.2554 87.4261 60.9878 88.5192C60.7079 89.675 60.2943 90.9906 59.8511 92.3741C58.8153 91.2844 56.841 89.0528 55.6157 86.6874C53.9055 83.3818 52.4439 79.9058 52.2353 77.8846C52.098 76.5568 51.9486 74.7684 51.8617 73.6874C52.3135 73.8299 52.7341 73.889 53.0817 73.889C53.3303 73.889 53.5319 73.8629 53.6987 73.8351C53.9316 73.9168 54.1488 73.9272 54.307 73.9064C55.096 73.7969 55.5983 73.053 56.2952 72.0224ZM50.6816 77.7004C50.5564 79.3549 51.2238 81.0894 49.9951 82.5563C48.7681 84.0266 47.077 85.9679 42.202 85.7837C37.3235 85.6012 33.6477 82.843 32.9125 81.1885C32.1774 79.5357 32.6136 77.7473 32.9942 76.1292C33.2341 75.1108 33.3401 74.1323 33.387 73.4545C34.8417 73.093 35.8323 72.038 36.3815 70.2323C36.7204 69.1182 36.8942 68.1849 36.9881 67.5037C37.4851 67.8843 38.0222 68.2041 38.5974 68.4091C39.6611 68.7845 41.0706 69.0192 42.2767 69.0192C43.5263 69.0192 44.5396 68.788 45.2834 68.3309C45.9213 67.9399 46.5661 67.5245 47.1883 67.0275C47.1239 68.2406 47.1048 69.77 47.3534 70.5973C47.6731 71.6661 48.2588 71.859 48.8341 71.9633C49.14 72.0189 49.4876 72.0832 50.0941 72.6411C50.261 72.7941 50.4244 72.8966 50.5895 73.0165C50.6677 74.4608 50.7615 76.6437 50.6816 77.7004ZM35.4969 63.1031C34.6018 61.6119 34.5219 59.9348 34.3776 56.8899L34.3342 55.9722C34.1587 52.4667 34.6105 50.6592 36.2686 48.2365C37.4486 46.5124 38.3576 46.0136 40.3215 46.0136C40.5753 46.0136 40.8447 46.0223 41.1836 46.0432C42.633 46.0432 45.8378 46.4273 46.4861 47.6125C47.6123 49.6773 48.4518 52.6336 48.8445 55.9357C49.2895 59.6741 49.2721 61.0506 48.3075 62.9797C47.3308 64.9332 45.8882 65.9256 44.3745 66.8537C43.9191 67.1317 43.1753 67.2847 42.275 67.2847C41.0515 67.2847 39.8731 67.0222 39.1745 66.7755C37.9857 66.3514 36.644 65.0149 35.4969 63.1031ZM21.5966 81.7203C21.2368 80.8374 20.917 80.0501 20.6807 79.4175C19.9542 77.4796 17.6896 74.0715 15.6927 71.0648C14.5943 69.412 13.5567 67.8513 13.0962 66.9962C11.89 64.7559 9.14574 55.31 8.58611 52.7066C8.29065 51.3266 7.71191 50.2491 7.20268 49.2984C6.71431 48.3877 6.29198 47.6004 6.21378 46.7453C6.12688 45.7964 6.84292 44.5972 7.66846 43.2068C8.25937 42.2127 8.93197 41.0847 9.46031 39.8038C9.73317 39.1399 10.0477 38.3422 10.3971 37.4593C11.6814 34.2128 13.4385 29.7653 15.293 26.484C16.9597 23.5329 17.5089 21.5099 17.9086 20.0326C18.0737 19.4226 18.2075 18.9273 18.3831 18.4911C19.1895 17.7802 22.9035 14.4694 24.7267 12.2778C25.8755 10.8961 26.4681 9.70907 26.9895 8.66108C27.3858 7.86682 27.7264 7.18032 28.2374 6.59636C28.6632 6.10973 29.122 5.4493 29.6086 4.75237C30.3212 3.72697 31.6508 1.82041 32.3546 1.6918C32.485 1.88124 32.4502 2.68244 32.4311 3.11346C32.4207 3.35678 32.4103 3.59488 32.4103 3.81908C32.4103 4.56988 31.7325 6.31655 30.6393 8.37257C30.2534 9.10078 30.2117 9.71081 30.1752 10.2478C30.1439 10.6876 30.1179 11.0699 29.9076 11.5618C29.7651 11.8937 29.5044 12.1422 29.202 12.4307C28.6232 12.9782 27.8324 13.7307 27.9124 15.2567C27.9767 16.4837 26.1153 18.2825 24.4729 19.0124C24.0645 19.1949 23.7256 19.3166 23.4388 19.4191C22.5368 19.7459 21.826 20.0031 21.2681 21.3014L20.9535 22.0191C20.2027 23.7102 18.9479 26.5431 18.4613 28.8129C17.8982 31.4372 16.4296 37.6783 15.8943 39.8125C15.7135 40.5373 15.4111 41.5435 15.0896 42.6159C14.2554 45.4001 13.6627 47.4492 13.6627 48.4781C13.6627 49.5382 14.3475 50.7305 15.213 52.2408C15.8143 53.2905 16.4991 54.4828 17.0379 55.7932C18.3535 58.9893 20.1958 62.6721 21.5201 64.7507C22.7836 66.7355 27.1372 69.5944 28.1522 70.2444C28.7414 71.1708 30.3195 73.378 31.9566 73.5692C31.477 75.3471 30.2482 79.6469 28.7796 82.843C27.1007 86.5015 25.2307 88.8008 24.4451 89.6802C23.7812 87.108 22.5629 84.0996 21.5966 81.7203ZM27.0538 103.494C29.3914 103.223 36.0444 102.512 41.7136 102.512C47.4802 102.512 55.1134 103.499 57.6387 103.85C57.5379 105.087 57.4145 106.297 57.2007 107.289C56.6341 109.929 55.9303 113.209 56.0867 116.158C56.1875 118.023 56.4186 118.948 56.7732 120.343C56.9591 121.08 57.1816 121.968 57.4475 123.228L53.1999 123.819C52.5673 123.378 51.9173 122.832 51.3455 122.163C51.0031 121.761 50.7546 121.363 50.5165 120.978C49.8335 119.876 49.1278 118.736 46.6669 118.736C43.8705 118.736 41.5207 119.094 38.4532 120.872C36.8925 121.777 35.6116 122.735 34.3446 123.738L27.8307 123.96C28.6128 121.332 28.8457 118.845 29.0056 115.974C29.1689 113.061 28.3764 109.484 27.7403 106.606L27.4084 105.086C27.3093 104.623 27.1859 104.074 27.0538 103.494ZM60.1362 145.624C59.7729 148.361 59.5122 150.341 57.7864 151.615C55.4888 153.316 52.6281 154.225 49.0479 154.388C48.3405 154.42 47.6366 154.458 46.938 154.496C43.6515 154.673 40.5509 154.84 37.3635 154.395C36.3885 154.26 35.2762 154.124 34.1204 153.984C30.6497 153.559 26.7184 153.078 25.1629 152.43C23.5118 151.743 20.8388 151.366 18.2545 150.999C17.1978 150.85 16.1602 150.704 15.2391 150.541L14.2954 150.372C11.4121 149.859 8.68865 149.374 6.47621 149.31C5.86792 149.291 5.30655 149.314 4.79037 149.333C3.17927 149.4 2.61791 149.361 2.22339 148.731C1.46563 147.517 1.69678 146.46 2.1643 145.874C2.4163 145.56 2.55708 145.492 2.97245 145.295C3.43649 145.076 4.07259 144.776 5.12059 144.013C6.19292 143.234 6.19292 143.232 7.00282 143.55C7.42862 143.717 7.98303 143.933 8.79641 144.15C9.44293 144.322 10.013 144.522 10.5448 144.708C12.281 145.316 13.92 145.89 16.2801 144.744C19.5805 143.142 25.0708 144.694 25.1247 144.708C25.1281 144.71 25.1334 144.708 25.1386 144.71C27.5405 145.469 30.5506 144.6 31.7637 144.247C32.4885 144.035 33.3262 143.839 34.2073 143.632C36.0965 143.187 38.2377 142.683 39.9044 141.885C41.1227 141.3 42.0751 140.384 42.9163 139.576C43.8322 138.693 44.6265 137.928 45.4086 137.928C47.3395 137.928 50.2054 138.09 52.7602 139.478C53.723 140 54.7172 140.876 55.8677 141.891C57.1329 143.005 58.5355 144.199 60.1848 145.233L60.1362 145.624ZM97.4765 148.279C97.0055 148.874 94.1761 148.874 92.6415 148.874C90.3873 148.874 87.2138 149.242 84.5599 149.811C82.1563 150.327 79.89 150.527 76.4714 150.527C74.2937 150.527 73.6993 149.868 73.0128 149.105C72.7677 148.836 72.5279 148.573 72.2498 148.339C71.499 147.716 70.3468 147.351 68.6001 146.797C67.2966 146.385 65.6751 145.871 63.6399 145.075C60.9009 144.006 58.8396 142.188 57.02 140.587C55.8399 139.548 54.7276 138.569 53.5927 137.951C50.3531 136.192 46.6321 136.192 45.4103 136.192C43.9278 136.192 42.8016 137.276 41.7136 138.324C40.9298 139.08 40.1216 139.857 39.1553 140.32C37.6589 141.037 35.6151 141.517 33.8111 141.941C32.9004 142.155 32.0314 142.358 31.2771 142.577C27.6117 143.65 25.2481 143.481 24.2505 142.071C22.3526 139.397 23.1382 136.315 23.8316 133.602C23.8403 133.568 23.849 133.535 23.8577 133.5C24.1514 133.566 24.4712 133.484 24.6919 133.246C25.8598 132 27.4848 130.9 29.2054 129.735C30.0953 129.134 31.0147 128.512 31.9271 127.832C32.8482 127.147 33.6772 126.487 34.4819 125.842C36.0252 124.607 37.4851 123.439 39.3239 122.372C42.0525 120.786 44.1572 120.468 46.6651 120.468C48.158 120.468 48.4153 120.884 49.0375 121.887C49.2964 122.305 49.5901 122.783 50.0212 123.289C51.8443 125.425 54.2601 126.487 55.2125 126.843C55.9824 127.134 57.3172 127.905 58.6259 128.812C58.645 128.826 58.6624 128.84 58.6832 128.852C59.6252 129.508 60.5481 130.231 61.2293 130.884C61.961 131.586 62.5259 132.346 63.1272 133.149C63.8624 134.136 64.6966 135.255 65.9584 136.411C68.0891 138.363 70.8994 141.171 72.3628 142.633C73.7932 144.061 74.1842 144.176 75.7345 144.176C76.2854 144.176 77.6028 144.392 78.8785 144.6C80.427 144.854 81.8869 145.094 82.7177 145.094C84.5165 145.094 87.7665 143.926 88.7224 143.568C89.8312 143.151 91.6404 142.847 93.9849 143.75C95.132 144.192 95.9854 144.388 96.6736 144.548C97.4453 144.727 97.8328 144.823 98.1578 145.083C98.4741 145.438 98.0987 147.501 97.4765 148.279ZM49.6353 151.795C49.4806 152.094 49.1765 152.266 48.8637 152.266C48.7281 152.266 48.5925 152.235 48.4657 152.169C48.377 152.124 46.2862 151.032 44.7394 149.072C43.0553 146.936 43.8148 143.378 43.8461 143.227C43.9504 142.758 44.4127 142.466 44.882 142.565C45.3512 142.669 45.6467 143.13 45.5459 143.601C45.3703 144.406 45.1322 146.762 46.1038 147.994C47.4194 149.663 49.2443 150.615 49.2617 150.626C49.6875 150.845 49.856 151.37 49.6353 151.795ZM49.6753 125.759L49.5884 125.992C48.9645 127.66 48.815 128.056 47.3777 128.31C47.0718 128.366 46.6651 128.437 46.0951 128.595C46.0169 128.616 45.9404 128.626 45.8639 128.626C45.4816 128.626 45.1322 128.373 45.028 127.987C44.8993 127.523 45.1705 127.045 45.6345 126.918C46.2741 126.743 46.7346 126.661 47.0753 126.6C47.256 126.567 47.4646 126.53 47.5202 126.504C47.5671 126.431 47.76 125.922 47.9634 125.382L48.052 125.147C48.2206 124.697 48.7264 124.464 49.1713 124.64C49.6179 124.808 49.8456 125.31 49.6753 125.759Z" fill="black"/>
</svg>
